/* XPM */
static char *_e51d49006c54edcbaaa2712e822af60eGOWg6C5BSYihQzx[] = {
/* columns rows colors chars-per-pixel */
"50 50 63 1 ",
"  c #294C05",
". c #2B5303",
"X c #2C5B02",
"o c #2C5D00",
"O c #2C5E01",
"+ c #2C5F01",
"@ c #2C5F03",
"# c #2B5804",
"$ c #2C5805",
"% c #2C5806",
"& c #2D5906",
"* c #2C5A06",
"= c #2D5B06",
"- c #2D5F05",
"; c #2D5E06",
": c #2E5F06",
"> c #2C6101",
", c #2C6102",
"< c #2C6003",
"1 c #2C6400",
"2 c #2D6700",
"3 c #2D6602",
"4 c #2D6702",
"5 c #2E6005",
"6 c #2E6206",
"7 c #2F6206",
"8 c #2F6306",
"9 c #2D6900",
"0 c #2D6901",
"q c #2D6B00",
"w c #2D6802",
"e c #2E6902",
"r c #2E6C01",
"t c #2E6E00",
"y c #306606",
"u c #306E01",
"i c #316F03",
"p c #306A04",
"a c #316A05",
"s c #306906",
"d c #306A06",
"f c #316D05",
"g c #2F7001",
"h c #2F7400",
"j c #307201",
"k c #307600",
"l c #317204",
"z c #327205",
"x c #327405",
"c c #337505",
"v c #337705",
"b c #307800",
"n c #307900",
"m c #337805",
"M c #337905",
"N c #337B05",
"B c #357C05",
"V c #357F05",
"C c #358105",
"Z c #368405",
"A c #368605",
"S c #378C05",
"D c #388E05",
/* pixels */
">tX.>tut20> ...  XtO OX.  . 00>0.>0$&.t5  .t@2@.2t",
"20.X00j>20O  ....20. ..  ..$h5>>>u$.->t..#t2@@.2t@",
"tO.22ttX>O.   O0OOO     >2.tto@>t>.2O2>O20j.@o>0>@",
"2Og>OkO.O.   Ot..OO    >0 .t2.@00$t>#00j0g5..@@2..",
"O02.2t...   >uO ...   O>. @0o.0t>20#@2gg22@  .2- 0",
"O>..02  . OXt>  ..   ..O..@>o>t@>t>.@0tt@>   @t.og",
".. OtO   $>2t. $.  .X ..@..@>0@.00.>22h>@@   t> 0t",
" . 02  .2tO0O.5.  O0   >. .@>1.@g>tt.0g...  >g..0>",
"  OtX .ub0O2X0O .$t& .20   O2O t1>t@.t2 .  .0> o2#",
" .g>.X0bkOOO0p O>00.&>j&   >t -g@@@ @t.    .0@ oO ",
" 0g..>2kt.O20X>2>2>t00p  $5g> t0....>0.  ..@>. o# ",
"#t>...2uOX2t2>jXX2tk00O.0p0g..2@   #t>  @@.@@ ... ",
">2.  Xt20gu>>02.X0tu>>Ocx.0> O>.   t0..>>  @.    o",
"OO. .z0tjt2X>t##22j2>>pc.O2O.OO   >g@.>>.  ..   22",
"OO  xz>022XXu2X0>0gO#>55 ->....  .g> @@@   ..  @2 ",
".. 0A->2>> >t>j2.t0..O$. O>  .. .>0o ..  ...  .@. ",
"..$Vg .@t..j0>2.OtO .   ...   .>O>>     O0.    .  ",
"  yV$ .t0 0tOO. >0.      OX  .0>.OO    O0.        ",
"  zj  .h..t>   .t>  .$$ X2.  >2 .O.   .>$       % ",
" $p5  00 52.   5tX .2. $0O  XO. .O    .O    % %8  ",
" $y$ .>@ OO   .hO.XtO.O>t  ... .O.  .. .   #.%V;  ",
" $&. O2..OO   0t.O>> 2>0O $$   2.  OO     <<%Vz   ",
"..% .OO. ..  #tO .O.20>0.52  $t>  $0    ..g#tV%   ",
"  %&O.O  . .O>0. ..Ojt0>0t .O2t..>gO   $O2e&vz    ",
"  $-...  .-0.2O   .tjtO20O$0O2>500t.  $0Ot$pM5  %4",
" .4% .  5>0.#2O  .5gt.O00Ot>O2tg00>   u>>>Ob0 .ot.",
"-u2   .k2>.&zo. -52tOOt0O20.O0tg22.  >kX>>tg55@2e.",
"4j.  .Vk..&cy. eN.>2O00O>tO.>0ttO>   jt$X0t500o250",
"2e   zV$..zV. yS5.O>>0O.p0o022gOXO  OtO.Ot>>t@@2th",
"2&  -V8$&;Dd &cc  .OO0.XuO00.0j.O.  O2.Ou2Ot2.o2tg",
"@.  pz8f.VD. 5c-   .0$.t0>0##t>..  .OOOt>X20..22g2",
"O  &8fC$;Ax .80   O>t OhOOO Ot.    ..O>2X#u2@t<2h#",
".  .8CC dV8 .;%  5#g>.00.. .00.  .. .XO> 2t>j2.t2.",
".  .8A8 df&;8%%.2>2g..0O   OtO  O$   O0..g>22 XtO ",
"    vV%%8dMf .8;j$22.O>..  t0O.t5    22 0tXOX >0. ",
".. ;vd 88VM  w;w>X0O OO>$ 2b2.-j.   -k..t> . .t2  ",
"&  8z;ddeM# ;w<w.0t. Ot2 .gg.Otp   .00 O2.   20# .",
"   88zV&85 .g>>>OjO.O2t.#0k2 >C. .$-0O OO   XjO.Og",
"   ;pDd.&&.tt@>>t2X2>0t0ggh..Cz $0.O2..O.   u0.#2>",
"  .8VA. %80g2.@wtOu2O0kktg0 fS$O0. OO ..X  OjO X>.",
".;.8Cx &C8>0o.0t>0t.>jkt0t;%Ak.>$ OO$ .2..X22  .. ",
"w.%dM;%Mz @>.0t@>0O.2gjt22.4Be##Oup.. p5O>O>O.-.  ",
";#%8f&8e% @#>0@o20.>t0k>OO.pv%.eAy . pmO0..O0z-  >",
"0.%88%8%  .o>@.ou>2tO0t.$$%py &Mz   ODuO$ .jSy  o>",
"> %5& %#   O2@ t0>tX$t>....5% 8d$   VAO$  >Vc   O>",
". .5&  ;.  >t -gOO> O0O  ..$& ;&  .-Af$.  pc$  $00",
" #;.& 2O  .hO 00.O. 20.   .   #  -$fm&   .$;  $2O0",
"5w %.22  .gt.@0@   Xu>  $-      --.fd     .   02O0",
"g..<>g..@th1 >2.   t2. @2     .<t.%77    .   -h>>>",
"w.t>>1<twht# >@   -t@.>t.    .<50 -0-  &$   -jg.O2"
};
