/* XPM */
static char *_77df99965d747a3e05a3bb67ec15602JW4Eikx8U0JMATKd[] = {
/* columns rows colors chars-per-pixel */
"50 50 242 2 ",
"   c None",
".  c #3A331C",
"X  c #2E2B1A",
"o  c #343621",
"O  c #4E3B1D",
"+  c #443E26",
"@  c #664C1D",
"#  c #694B1B",
"$  c #7B5A1C",
"%  c #484224",
"&  c #534C2C",
"*  c #594A26",
"=  c #5F5229",
"-  c #534C32",
";  c #5B553A",
":  c #5A5336",
">  c #4E4C32",
",  c #654C24",
"<  c #6C5B2D",
"1  c #675428",
"2  c #735B2B",
"3  c #775928",
"4  c #685C36",
"5  c #7A5E35",
"6  c #624F30",
"7  c #7A632C",
"8  c #6C633B",
"9  c #6B6237",
"0  c #736235",
"q  c #7C6333",
"w  c #7D6B35",
"e  c #7A6B3B",
"r  c #766739",
"t  c #7E713E",
"y  c #635C41",
"u  c #5E6654",
"i  c #6C694A",
"p  c #686445",
"a  c #7C6D43",
"s  c #736C4C",
"d  c #756942",
"f  c #7D7346",
"g  c #7C734B",
"h  c #78734D",
"j  c #696C54",
"k  c #7B7553",
"l  c #797756",
"z  c #6D725C",
"x  c #494F40",
"c  c #8E5A0D",
"v  c #925C0E",
"b  c #885916",
"n  c #925E11",
"m  c #956114",
"M  c #9D6C1C",
"N  c #966418",
"B  c #8F6215",
"V  c #A16D1A",
"C  c #A57A18",
"Z  c #AE7713",
"A  c #88652A",
"S  c #986B23",
"D  c #99732D",
"F  c #97772B",
"G  c #836D3B",
"H  c #876A36",
"J  c #8B743C",
"K  c #897339",
"L  c #927A3D",
"P  c #9B7C3D",
"I  c #957837",
"U  c #9B6731",
"Y  c #AA6829",
"T  c #A3762B",
"R  c #A87927",
"E  c #B47C2A",
"W  c #A86E35",
"Q  c #A67A37",
"!  c #B07131",
"~  c #975B22",
"^  c #847543",
"/  c #8C7A44",
"(  c #847A4C",
")  c #8A7E4A",
"_  c #867648",
"`  c #937D43",
"'  c #987B44",
"]  c #837C54",
"[  c #847D5A",
"{  c #897D53",
"}  c #877347",
"|  c #A57E45",
" . c #B57C42",
".. c #AD8317",
"X. c #B0861C",
"o. c #9C8135",
"O. c #AA8229",
"+. c #B48729",
"@. c #AB843C",
"#. c #A88537",
"$. c #B98C3B",
"%. c #B58837",
"&. c #BB943A",
"*. c #B49333",
"=. c #C58F34",
"-. c #C5953A",
";. c #C7A43B",
":. c #8E814A",
">. c #93834C",
",. c #9B844B",
"<. c #9D884C",
"1. c #9B8344",
"2. c #8B8253",
"3. c #85815C",
"4. c #8C845C",
"5. c #8E895F",
"6. c #938452",
"7. c #9B8B54",
"8. c #938A5B",
"9. c #9B8D5B",
"0. c #968758",
"q. c #9C915D",
"w. c #A38442",
"e. c #A78849",
"r. c #B58844",
"t. c #AA9249",
"y. c #B99549",
"u. c #A48B59",
"i. c #AD9251",
"p. c #A3945C",
"a. c #A8975B",
"s. c #B49C5B",
"d. c #B89856",
"f. c #BA8954",
"g. c #BAA355",
"h. c #8B8663",
"j. c #8C8965",
"k. c #8C8C6B",
"l. c #848464",
"z. c #948D63",
"x. c #928E6B",
"c. c #9B8E63",
"v. c #9B9364",
"b. c #96916E",
"n. c #9A946D",
"m. c #9A9365",
"M. c #999471",
"N. c #9A9874",
"B. c #A39663",
"V. c #A59A64",
"C. c #AC9C63",
"Z. c #A29B6B",
"A. c #A79969",
"S. c #B6996D",
"D. c #B69A66",
"F. c #A39D73",
"G. c #A89D75",
"H. c #B89C74",
"J. c #B18F66",
"K. c #ADA26B",
"L. c #B8A769",
"P. c #AAA578",
"I. c #B2A373",
"U. c #B4AA75",
"Y. c #B3AC7C",
"T. c #BAAD7B",
"R. c #B9A477",
"E. c #BBB37B",
"W. c #C49A46",
"Q. c #C39757",
"!. c #C08F54",
"~. c #CAA348",
"^. c #D3A84C",
"/. c #C7A859",
"(. c #DAB65A",
"). c #D1B058",
"_. c #C39C66",
"`. c #C7AA67",
"'. c #D2AC6A",
"]. c #C9B469",
"[. c #D5BA68",
"{. c #C3AA7C",
"}. c #C6A977",
"|. c #C9B67C",
" X c #D5BA75",
".X c #D0AC77",
"XX c #E1BB5F",
"oX c #DBC366",
"OX c #D9C579",
"+X c #CCC07F",
"@X c #E5C367",
"#X c #E6C974",
"$X c #EAD27D",
"%X c #B5AD83",
"&X c #BBB386",
"*X c #C8AC84",
"=X c #CCB484",
"-X c #C6BA8A",
";X c #D3BB8B",
":X c #D3B887",
">X c #C8BB96",
",X c #D5BE93",
"<X c #D3B89A",
"1X c #CBBFA7",
"2X c #CDC48A",
"3X c #DAC789",
"4X c #DAC494",
"5X c #DAC799",
"6X c #D2CC96",
"7X c #E2CC89",
"8X c #E9D788",
"9X c #F1DB89",
"0X c #E2CC99",
"qX c #E9DA98",
"wX c #F1DD94",
"eX c #F4E394",
"rX c #F6E99D",
"tX c #F1E08E",
"yX c #D9C9A6",
"uX c #DCD2AC",
"iX c #DACAB4",
"pX c #DDD3B1",
"aX c #CECBA7",
"sX c #E0CEA9",
"dX c #E2D3A7",
"fX c #E2D5B7",
"gX c #E9E3A7",
"hX c #F5EBA7",
"jX c #FAF2AB",
"kX c #F7F1A9",
"lX c #EBE8B6",
"zX c #F3EDB2",
"xX c #F2EAB9",
"cX c #FAF5B3",
"vX c #FEFDBD",
"bX c #FAF6B7",
"nX c #E5DAC5",
"mX c #FFFFC1",
"MX c #F6F3C1",
"NX c #ECE3D6",
"BX c #EEE6CF",
"VX c #F2ECE6",
/* pixels */
"                                        bXbXbXlXgXgXgXgXqX8X                                        ",
"                                8XtXqX6XE.P.b.m.] i 8 9 h 2.a.].[.(.                                ",
"                            oXoXE.Z.] j t ) o.t w = = 7 * o X < 0 <.y.%.                            ",
"                        ~.g.a.:.f ^ o.h h :.h t 9 & & = < + % < r 4 = 7 b m                         ",
"                      ;.t.:.f ( :.( ( l a.L.q.V.L.q.f C.q.: ; ; 8 8 4 : = # B                       ",
"                  *.*.7.( ( h ( ] a.L.V.L.L.2.t o.t 9 2.q.t E.&Xl - 4 ; ( 9 * $ m                   ",
"                X.o.( :.2.l 8.q.7.g.K.q.p.q.>.:.( t t e r 8 h 5.s Y.P.i ; 5.] 8 $ m                 ",
"              X.o.h p.8.l 3.g.C.] :.7.C.K.a.>.:.^ ^ f f f f f h i [ P.z.s p l 3.] D +.              ",
"            ..F j u [ z.V.8.2.:.:.7.p.L.2XK.K.2.f ( ( 2.5.5.3.l ] ] s y &X%Xi 2.P.F.`.~.            ",
"          ..F ] j u z U.U.2.^ :.7.p.V.q.8.8.P.Y.&Xq.3.q.L.m.3.3.c.3.[ ] [ P.8.k N.yXnX'.Y           ",
"          ..l x.j.l.K.4.2.:.2.q.K.U.V.5.o.) 5.F.Y.F.m.L.8X].q.8.&X3.k [ [ h 4.+X%XpXNXnX .          ",
"        ..f l.k.b.2XY.2.2.2.q.P.E.Y.m.] O.*.g.P.N.N.K.8XcX8XL.I.T.k ] [ 4.z.8.U.3XnXnXnX<X .        ",
"      ..F x.%Xk.N.Y.5.5.8.5.m.Y.P.m.l.o.X.~.oXOXU.v.+XcXrXOXm.3.E.I.h.3.n.m.Z.&XyX4XfXfXnX=X'.      ",
"      C 8.N.N.N.%X3.q.z.z.m.n.F.b.k.3.t.;.(.$XkXhX2XhXjX8XU.k Z.@.M s.v.Z.K.I.-XdXOX0XfXfXfX0X      ",
"    Z o.x.k.k.6XF.x.b.x.x.x.n.M.k.3.l h a.OXrXvXvXvXcXeX2Xy 4 C.v v d.q.V.U.=X5XdX5X3XnXpXfXlXzX    ",
"    ..5.P.b.b.%Xb.b.n.b.b.n.n.n.5.3.l.3.] P.cXmXmXvXhX$XOX4.4.D c F K.:.q.|.3X4X4XsX5X.XpXpX1XlX    ",
"  ..o.N.%XN.-Xk.M.M.M.b.M.N.M.b.l.5.b.3.7.2XvXmXmXcXtX$XXXW.@.n v i.>.) u.|.4X4X4X0X,XQ iXiXN.2X    ",
"  ..2.N.N.%X6XM.b.M.b.M.x.k.j.[ l j u e E.cXvXvXvXrX$X@X^.C c c T `.w.6.s.=X4X;X3X4X4XH.*X%XB.p.#X  ",
"  O.l z z N.N.b.M.b.x.j.l.l.l j 5.p : 2.0XvXvXvXjX9X].].y.m c v R ^.' u.R.|.=X*X*X;X:X<Xe.v.7.:.).  ",
"  #.b.N.k.%Xl.b.b.b.z k.k.l.l p K.K.q.U.cXvXvXbXeXoXL `.OX$.m m =.E r.D.}.{.{.R.H.}.=XR.P J J t d.  ",
"+.o.F.5.P.-Xb.b.b.x.z N.Y.m.4.9.].].C.gXvXvXvXjX$Xt.t.y.&.R %.E =.Y !.'.J.H.S.S.u.r.*XJ.` G w 0 1.).",
"*.<.n.m.n.F.b.b.M.Z.x.Z.v.9.9./.(.d.a.cXmXvXbXeX`.L oX`.R V W.%.Z ! 7XrXr.S.J.S.u.u.*XJ.^ w 1 7 w y.",
"*.2.K.3.q.3.x.b.F.Z.c.Z.9.6.i.).).<.7XvXvXvXhX#Xo.].qX'.Q S R V Y _.cX9XW.D.S.S.| | H.u.J Q & % 6 y.",
";.5.q.z.`.q.z.v.U.A.A.z.) ,.g./.e.L.cXvXmXcXtX@X&.].wX$.E r.S n  .qXjXXX$.D.H.S.| | c.{ ` i.& % 4 r.",
"g.8.2.3.g.q.8.v.U.B.C.7.d P y.Q K 8XmXmXvXrX$X@X~.M S N %.d.S Y .XcX9XW.$._.S.f.e.' ' ) a :.& @ < &.",
").q.q.4.8.3.9.B.K.t.>.^ ^ P Q 3 s.bXmXvXjX$Xy.W.+.n v n T E ~ !.hXrX^.=.'.*XH.D.e.} ` >./ #.1 * 4 &.",
"].5.<.2.d.7.q.a.i.e.^ K K & A D 3XmXvXvXeXy.O H A v v m =.E ! 7XxX#XW. .'.*XH.S.| } L <.K U O O = &.",
"oX5.:.2.e.7.B.s.o.>.w F %.3 A g.bXmXvXkX#X3 X 4 L b N E =.Y Q.lX9X^.!._.'.=X}.D.' ` L ) 5 5 + + = &.",
"7XZ.a a ` { V.s.I G A +.^.oXOXzXmXmXbXeX@.+ # b A W $.W.! ! 0X7XQ.:XiX*X.X,X}.f.` H 3 H ^ d + q K +.",
"tXT.a } ^ L c.e.A 3 N ;.oXtXbXmXmXmXhX[.| 4 @ A S I /.! Y .XcX9X'.NX*XW :X=XJ.} 5 3 , 5 S.0.2 G K O.",
"  2X} G ^ T 6.,.A @ $ F oXhXmXmXvXcX9Xr.r e.K 1 0 #.@.%.!.qXhXXXW.:X . .:XJ.' A 5 = * 5 P.] q d F   ",
"  gX4.H ( ' ] } e @ , 1 H L.hXmXvXrX$XW.A ^ s.$.t.1 A | 4XcX$XW.E '.J.H.*X| } r 8 - : : p & 0 a S   ",
"  bXP.s z ) H r 5 1 @ 1 # 7 ~.zXjX9X#XXXE A H ' 7.I / Y.zXrX(.%.+.-.*X<XH.c.} a a p : h > 6 H 5 N   ",
"    aXl K } D 2 3 3 @ , 3 A d.cXeX#X@XW.M v S y.L.C.L.0XcX#X=.E E @.1X<XG.0.0.{ 3.z.k d o o y 3     ",
"    xXm.J e H < * # @ @ 2 r.qXjX7X,.D.%.v v m +.=.! '.zXwX^.%.+.V L.nX*XI.P.Y.P.n.z.9.9.i x ; b     ",
"    mX&Xs ^ * L 1 # @ 3 H ;XbXwX+X6 ; i.v v V -.!  .qXcX@X=.+.C Q fXdX&XL.].|.E.U.B.w.<.A.x.2 b     ",
"      lXh./ e '  ., , 3 K.zXhX7XJ.H ' V v M %.=.Y .XcX9XW.%.+.T ;XBXuXK.s.[.W.Q.`.s.w.w.c.u.b       ",
"      MX%X0 6 . A O , 5 J B. Xd.1 H T v n @.D.' r.7XwX).$.+.%.*XBXlX-XK. Xy.y.w.e.e.!.i.' A b       ",
"        lXz X O + A A , # , 2 ) u.D m m S ` 0.B.%X=X}.`.D.}.5XdXyXE.u.i.y.y.w.J J #.t.e.I b         ",
"          6X4 2 6 4 J.d O , } %XL.F V m P 0.L.&X<XyXuXuXsXdXsX,XR.u.1.o.1.i.P K 7 I ' ' n           ",
"          dXT.6 G + y [ M.y } S.0.g 1.D 0.n.%X-X:X;X;X4X,X;X=XT.m.h 9 ) J o.o.^ 7 w / S b           ",
"            8XV.s [ x p >XR.: i 3.h.b.m.n.U.2X5X0X|.}.;X;X;X`.D.l.h ( f r w >.>./ J F N             ",
"              $XJ.d M.[ k k } e.h k 2.8.7.C.{.;X;X;X;X;X,X5X}.i.8.) #.@.0 o + h <.Q V               ",
"                #XJ.y s s ; e | #.< t t 7.I.=X2X:X:X;X;X,X<XR.7.o.^ K 9 & & X & #.C                 ",
"                  oXd.r ; : 8 . < 0 #.#.7.L.=XpX5X;XyX5X}.s.u.Q L 9 0 < 6 : 0 *.*.                  ",
"                      O.3 < % % / t r 8.R./.Q.:X`.y.`.*Xe.e.( d r r w w w P -.                      ",
"                        V B @ < f J ' n.>XVXpXNXfXiXNXnXI.9./ J w r 9 / y.~.                        ",
"                            V N b q c.%XiXNX=X<X<X*XnXiXa.:.^ f / <.y.~.                            ",
"                                  C r.].0X<X,XsXsXsXnX1X*XU.`.).).                                  ",
"                                        ^.E ! !..X0XxXMXzXwX                                        "
};
