/* XPM */
static char *d4954fef93e0464ac7e9c9a4b239bfabVVm4JzJHDQ515hJ2[] = {
/* columns rows colors chars-per-pixel */
"50 50 249 2 ",
"   c None",
".  c #19180C",
"X  c #261E0E",
"o  c #2A1E0F",
"O  c #33240D",
"+  c #3D260E",
"@  c #292513",
"#  c #3B2C13",
"$  c #362A15",
"%  c #3C331A",
"&  c #27220F",
"*  c #1D211B",
"=  c #472C0D",
"-  c #552B03",
";  c #592E04",
":  c #562D09",
">  c #4D310C",
",  c #5C340A",
"<  c #5A3308",
"1  c #472C13",
"2  c #453315",
"3  c #4C3314",
"4  c #443519",
"5  c #4C351A",
"6  c #4A3C1B",
"7  c #483A19",
"8  c #513513",
"9  c #553B16",
"0  c #5C3C15",
"q  c #533D19",
"w  c #573C1B",
"e  c #692D0C",
"r  c #613306",
"t  c #6B3C0B",
"y  c #65380B",
"u  c #663B16",
"i  c #783A14",
"p  c #7C3A0E",
"a  c #433C23",
"s  c #553F24",
"d  c #3D4437",
"f  c #4D421F",
"g  c #55421C",
"h  c #5C431C",
"j  c #5E461A",
"k  c #6E410E",
"l  c #78450D",
"z  c #654214",
"x  c #6B4415",
"c  c #63441B",
"v  c #644A1E",
"b  c #6D4A1B",
"n  c #7C4A14",
"m  c #764917",
"M  c #785219",
"N  c #6D521C",
"B  c #4D4324",
"V  c #4B4629",
"C  c #554522",
"Z  c #5A4421",
"A  c #5B4B23",
"S  c #534C2B",
"D  c #5B4C2A",
"F  c #5A462A",
"G  c #5D542E",
"H  c #5D5027",
"J  c #544F32",
"K  c #5B5432",
"L  c #595739",
"P  c #484B37",
"I  c #634D23",
"U  c #6B4E22",
"Y  c #644B2A",
"T  c #764C25",
"R  c #645325",
"E  c #6C5324",
"W  c #65552B",
"Q  c #6B552A",
"!  c #6C5A2C",
"~  c #67592B",
"^  c #735423",
"/  c #7D5621",
"(  c #735B2C",
")  c #795928",
"_  c #645A34",
"`  c #6C5C34",
"'  c #635E3A",
"]  c #675535",
"[  c #755935",
"{  c #6D612E",
"}  c #7B622C",
"|  c #75612B",
" . c #6C6234",
".. c #65603C",
"X. c #6B633B",
"o. c #6F693E",
"O. c #736433",
"+. c #7B6A35",
"@. c #73653A",
"#. c #736A3C",
"$. c #7A6D3B",
"%. c #796535",
"&. c #7D713B",
"*. c #585B43",
"=. c #6A6542",
"-. c #6B6845",
";. c #736C43",
":. c #796B45",
">. c #7B7343",
",. c #76724B",
"<. c #7A754C",
"1. c #797448",
"2. c #7B7752",
"3. c #605F40",
"4. c #843E0C",
"5. c #834A15",
"6. c #845314",
"7. c #885619",
"8. c #975817",
"9. c #834C0F",
"0. c #96670C",
"q. c #986817",
"w. c #8F691A",
"e. c #A46C1A",
"r. c #835B24",
"t. c #835D2A",
"y. c #865822",
"u. c #925B29",
"i. c #855426",
"p. c #856423",
"a. c #84642C",
"s. c #8C6529",
"d. c #966A29",
"f. c #9A742C",
"g. c #836B35",
"h. c #836C3B",
"j. c #856738",
"k. c #83743C",
"l. c #8A763A",
"z. c #8E7A3B",
"x. c #877136",
"c. c #977837",
"v. c #946D31",
"b. c #A46D26",
"n. c #A87826",
"m. c #B47827",
"M. c #A47B37",
"N. c #AA7236",
"B. c #8B6947",
"V. c #847A45",
"C. c #8B7B42",
"Z. c #837B4B",
"A. c #867646",
"S. c #967946",
"D. c #856C55",
"F. c #886E58",
"G. c #897557",
"H. c #957858",
"J. c #A97947",
"K. c #A37B52",
"L. c #937C64",
"P. c #9A843C",
"I. c #A7873A",
"U. c #B48835",
"Y. c #B89337",
"T. c #AF842C",
"R. c #C99437",
"E. c #CB9233",
"W. c #D7A43D",
"Q. c #C8A53C",
"!. c #8A8248",
"~. c #9B8443",
"^. c #968749",
"/. c #898359",
"(. c #948957",
"). c #9A9253",
"_. c #A78646",
"`. c #A9954A",
"'. c #B69747",
"]. c #A68757",
"[. c #A59658",
"{. c #B89653",
"}. c #BCA149",
"|. c #BAA759",
" X c #ABA35C",
".X c #958D64",
"XX c #9B9668",
"oX c #A88868",
"OX c #A69C66",
"+X c #B7986B",
"@X c #BB9D73",
"#X c #B59774",
"$X c #AC9174",
"%X c #A9A369",
"&X c #B7A66A",
"*X c #B8A774",
"=X c #BEB475",
"-X c #B2AA72",
";X c #C59B49",
":X c #C29D51",
">X c #CAA947",
",X c #D3A845",
"<X c #D9B44B",
"1X c #C7AA59",
"2X c #C8B258",
"3X c #D7B759",
"4X c #C39E6C",
"5X c #C6A566",
"6X c #C4A777",
"7X c #CBB371",
"8X c #E2BB58",
"9X c #E7C758",
"0X c #D9C668",
"qX c #D1C475",
"wX c #E5CB64",
"eX c #ECD466",
"rX c #F2DC6A",
"tX c #E7D777",
"yX c #F2DF73",
"uX c #F4EA7C",
"iX c #F5E678",
"pX c #F4E26D",
"aX c #D7C256",
"sX c #AF9D86",
"dX c #BCA789",
"fX c #B8B485",
"gX c #C6AB88",
"hX c #C8B487",
"jX c #CBB697",
"kX c #CDB698",
"lX c #D1BDA6",
"zX c #CBB9AA",
"xX c #D7CC8E",
"cX c #E6D785",
"vX c #E3DC92",
"bX c #F4EB83",
"nX c #FEFC8D",
"mX c #F9F386",
"MX c #FFFE93",
"NX c #FAF39F",
"BX c #EFE993",
"VX c #D6C5A7",
"CX c #D7C9B6",
"ZX c #DCD4AE",
"AX c #E5DAAF",
"SX c #E7E3A5",
"DX c #F9F5B0",
"FX c #E5DCD2",
"GX c #EFE6E2",
/* pixels */
"                                        m.5.i u.J.4XxXvXtX3X                                        ",
"                                k k 7._.6XgXgXjXjXlXxX$X).P.I.m.m._.                                ",
"                            k , , A =.-XAXFXZXVXkXkXxXsXA.} E A U U r.c.                            ",
"                        k , > f X.1./..XfXCXVXkXVXVXjXCX.X` I h 2 1 $ h r.b.                        ",
"                      n > f G !.X.J K >. XjX5X;X4X+Xj.[ L.Y w 5 # O . $ % b s.                      ",
"                  Y.f.g 7 ~ G S ' Z.#.`.`.%XgX7XgXkXoXoXsX[ c w 5 # @ O O + 3 6.6.                  ",
"                Q.f.f f a f S ..-X XL  .$.(.&X6X6X5X6X+X$XH.] s h r.E O O X . q b x                 ",
"              >Xf.f ~ C V Z. XL ..X.o.#.$.k.].&X6X4X@XoXoXoXH.] Z h Z i.> X O 8 Z 0 y               ",
"            3Xz.% g j V .. X1.' X.X.#.>.C.!.^.{.4X#XoXL.B.[ F.B.] D F w u 1 o 1 9 s 9 :             ",
"          qX[.@ . 2 ~ %X#.S ..X...X.X.#.k.z.~.`.4X+XL.L.F.[ Y ] Y Z I E s 5 ) I 0 5 a 8 :           ",
"          qXf > % * ).^._ ..X.V.V.L ;.>.^.| | g.K.oX].H.F.F.[ Z F 5 q u c 1 [ [.a = 5 $ >           ",
"        vX .7 j f P.S H ~  ...&.[.V.^./ x.k.R ^ a.].H.H.D.F.F.[ T s 5 w 8 = 1 a a X X * $ :         ",
"      BX%X6 7 % P.P.A R { 1.o.o.^.).x.- , P.! N ( B.H.D.F.F.F.F.B.] w w 1 O O # B % . J %.0 -       ",
"      vX_ 6 % f &.H H R &.!.P.I.l.X.^.x - M f.) E t.M.v.i.j.F.F.F.D.T c 1 + . @ % D ( l.B.U >       ",
"    NX-XI I f I.f j R { k.P.0X9X}.o.X.x.; ; 8.b.5.5.3XyXE.5.u.oXL.H.B.T 1 + # 4 G $.) ^ ^ Q 0 :     ",
"    BX-.E A z.P.R N { { &.P.tXpX3X!.@ #.b - : 5.8.e b.yX8Xb.7.K.K.$XK.[ 5 1 4 C O.#.} b / t.b ,     ",
"  NX=XG { S &.H ~ N ~ o.V.!.|.uXeX|.&.P.x - - r 8.4.e :XiXE.8.i.J.J.gXF.u 5 5 F :.C.c.a.p./ U z ,   ",
"  NX(.R ~ x.P.R | ~ {  X).!.P.tXiX<X,XE.n ; ; t 9.9.e u.tXwXm.5.L.B.K.K.[ s s [ ^.~.M.t.z m c b u   ",
"  cX*.S G Y.P.+.| x.). X).!.V.|.uXeX<XW.n.M d.6.u.7.; i '.uXW.8.sXL.u H.F.] F B.`.f.7.E 0 9 9 c x   ",
"  =XK ~ L P.{ &.z.`.!.!.).`.0XbXnXiX9XW.Y.}.n.t t y y : 5.0XrXm.zXzXu T $XL.[ B.I.f.y.c h 3 h U m   ",
"0X).! R { P.O.P.|.&.{ k.T.aXuXnXMXnXpX<Xx.d.p.p.m M v.u e J.tXN.J.4X'.N.$X$XA.V.v.I.7.r.c U ! %.7.n ",
"3X!.~ ~ P.P.+.P.).{ N M T.Q.eXmXMXMXuX9XY.M Y.'.u.n s.5.4.5.1X0XE.6.l 6.B.zX*X`.a._.s.s.U U I % g w.",
">Xk.~ _ P.{ { x.+.{ | M 0.Y.aXuXMXMXnXpXW.p.w.0X<Xt ; 4.8.e v.tX9Xm.l k e B.xX7X^.a./ c c g . . 7 d.",
"'. .! K +.~ { | z.k.&.M M P.&. XmXnXnXmXeXY.N 2X'., - e 8.5.i :XuXW.8.m l y jXVX[.) c Z 4 q $ # g b.",
"Y. .K _ P.+.~ +.P.!.#. .{ ' o.P.0XnXnXnXuX<Xd.7.m - - - l 8.e u.tXeXm.5.p t B.SXOX( g a I / % $ g f.",
"I. .{ ..P.O.R | !.).1.-...X.>.H `.bXnXnXnXeXW.E.m.y - - m M.m 7.|.bX<Xe.l 9.T hX6XB.C a W / 2 6 A f.",
"T.O.{ L  .G ~ { !.).1.;.X.1.V.G ! |.nXMXnXuX9XW.m.x N u m y.7.u $.tXyXE.7.9.M 6X6XH.L S D I 4 j I f.",
"f.| O.X.!.V.~ { &.!.Z.;.o.o...V G ~.yXnXMXnXrX,Xz # B > t z z 5 ( {.iX8Xb.5.t.gX@X].h.[ R Y 6 h Z M.",
"n.| &.&.~.^.~  .#.>.1.,.;.o.L G l.c.P.uXMXMXmX9Xp.. O , 0 q / 0 h.d.5XbXR.w.H.hX@X].v.B.) T C g ) M.",
"0.+.X.*.#.>.~ O.#.;.,.1.1.....!.I.Y.a.}.MXMXMXpX,X> o # 3 7.d.$.M.i b.cXeXb.#X7X+X@X*XH.%.A C A a.{.",
"  w.d d L ).;.#.#.1.,.,.;.=.S V c.U.f.d.wXMXMXmXeXn.5 ^ t.c.I j.q.5.i :X2X].hX6X#X@X6X$Xh.D R A I.  ",
"  w.L P 3.&X(.O.;.1.,.,.;.3.L _ g.U.U./ I.mXMXMXuX<Xr.R c q x r p b.4.y.H.hXhXoX+X@X@X#Xr.%.Q O.;X  ",
"  q.{ Z.2..X/.X.1.1.<.,.-.3.3.#.+.f.T.r.h 1XMXMXnXrXY.b k t ; ; r 8.7.U (.*X@X].+X@XgX$XB.G.O.C.8X  ",
"  0.} -.,.,..X2.1.<.<.<.-...Z.!.} } d.y.8 N tXMXMXbX9XR.E.8.r ; r m ^.[ ^.].5X4X+X@XgX@XCX#XA.=XcX  ",
"    0.X.2./.XX-X<.2.<.<.3.*.1.V.+.) ^ 7.m x _.MXMXMXpX<XW.E.r.x ; y T O.^.OX7X@X+XdX].K.GXFXdXSX    ",
"    0.| /..X/.%X-.2.<.<.,.P o.&.$.Q A N 2 + v.mXMXMXmXeX,XM.#.a.r r k ` <.[.[.+X@XlXN.kXdXjXAXDX    ",
"      0.;./.-.,.XX/.2.2.<.<.1.#.z.g.E v j N >XuXMXMXNXiX<X) O U n r y M <.).S.[.gX4XlXlXjXVXxX      ",
"      0.} 2..X2.=X-X,.2.2.<.1.P.k.g.! v l n.Q.wXmX0X:XbXrX1Xh.c n y y x V.&.g.H.J.J.CXkXgXgX5X      ",
"        0.&.(..X/.XX-.,.2.2.Z.^.!.a.| v z 0.U.Q.S.b x |.mX9X{.w j m M B.V.+.( @.c.CXlXgXkXJ.        ",
"          w.;.XX,.*.-XOX,.,.&.V.^.v.p.E g k M 9 9 + 0 v.cXiX>X) ^.A.W <.1.~ E a.L.jXGXlXN.          ",
"          0.w.;.*.-./. X;.X.;.$.g.z.t.b w > 1 2 7 8 8 c 5XbX{.U A.&X#.;.K j 7.R ;.(.VX7Xb.          ",
"            q.p.2./.<.-.>.`.k.#.$.x.c.a.c 8 = + + + = 8 S.].0 1 ` [ _ ! s.H g ! h.H.|.R.            ",
"              e.&.Z.(.!.:.^._.O.@.$.z.S.) U Z q 3 = = 3 h z 1 1 5 D S M.^ f } | W p.m.              ",
"                T.w.o.!.A.;.X.k.M.a.` [ $.[ I h 9 8 = 3 9 9 1 a XX=X .H S & A R N 7.                ",
"                  T.I.&.A.;.C.[  .( ! / ) ] A g 4 6 h 3 1 T S.-./.,.=.V G % 7 M 8.                  ",
"                      Y.~.V.1.j.` ] K ] ( ` ) M N p.d.u 1 Y F a J 2.X.J j x 6.                      ",
"                        Y.'.^.1.` ] ! Y ` L ! Y 6 C 6 o 5 s F :.2.-.] T 6.7.                        ",
"                            <X7X&X(.:.` ] *.^ _ [ a.A o I s Y X.:._.'.U.                            ",
"                                tXBXvXxXfXXXXX/.2.-.=.L ,./.[.1X3X3X                                ",
"                                        DXDXDXDXSXZXSXSXvXcX                                        "
};
