/* XPM */
static char *d191bb9421de427b86149d711a83402dEMBE8I32dUHYS2Ak[] = {
/* columns rows colors chars-per-pixel */
"50 50 108 2 ",
"   c None",
".  c black",
"X  c #010101",
"o  c #020202",
"O  c gray1",
"+  c #040404",
"@  c gray2",
"#  c #060606",
"$  c #070707",
"%  c gray3",
"&  c #090909",
"*  c gray4",
"=  c #0B0B0B",
"-  c #0C0C0C",
";  c gray5",
":  c #0E0E0E",
">  c gray6",
",  c #101010",
"<  c #111111",
"1  c gray7",
"2  c #131313",
"3  c gray8",
"4  c #151515",
"5  c #161616",
"6  c gray9",
"7  c #181818",
"8  c #191919",
"9  c gray10",
"0  c #1B1B1B",
"q  c gray11",
"w  c #1D1D1D",
"e  c #1E1E1E",
"r  c gray12",
"t  c #202020",
"y  c gray13",
"u  c #222222",
"i  c #232323",
"p  c gray14",
"a  c #252525",
"s  c gray15",
"d  c #272727",
"f  c #282828",
"g  c gray16",
"h  c #2A2A2A",
"j  c gray17",
"k  c #2C2C2C",
"l  c #2D2D2D",
"z  c gray18",
"x  c #2F2F2F",
"c  c gray19",
"v  c #313131",
"b  c #323232",
"n  c gray20",
"m  c #343434",
"M  c #353535",
"N  c gray21",
"B  c #373737",
"V  c gray22",
"C  c #393939",
"Z  c #3A3A3A",
"A  c gray23",
"S  c #3C3C3C",
"D  c gray24",
"F  c #3E3E3E",
"G  c #3F3F3F",
"H  c gray25",
"J  c #414141",
"K  c gray26",
"L  c #434343",
"P  c #444444",
"I  c gray27",
"U  c #464646",
"Y  c gray28",
"T  c #484848",
"R  c #494949",
"E  c gray29",
"W  c #4B4B4B",
"Q  c #4C4C4C",
"!  c gray30",
"~  c #4E4E4E",
"^  c gray31",
"/  c #505050",
"(  c #515151",
")  c #535353",
"_  c gray33",
"`  c #555555",
"'  c #565656",
"]  c gray34",
"[  c #585858",
"{  c gray35",
"}  c #5A5A5A",
"|  c #5B5B5B",
" . c gray36",
".. c #5D5D5D",
"X. c gray37",
"o. c #5F5F5F",
"O. c #606060",
"+. c gray38",
"@. c #626262",
"#. c gray39",
"$. c #646464",
"%. c #656565",
"&. c gray40",
"*. c #676767",
"=. c #686868",
"-. c DimGray",
";. c #6C6C6C",
":. c #6D6D6D",
/* pixels */
"                                                                  . . . . . . .                     ",
"                                                                . .             . .                 ",
"                                                            . .                     .               ",
"                                                          . .                         .             ",
"                                                          . .                           .           ",
"                                                          .                             .           ",
"                                                        . .                             .           ",
"                                          % 9 e 9 9 3 % @ .                             .           ",
"                                          3 v Y ! ! L v u 3 @ @ % % % % @ .             .           ",
"                                        . u S !  .} ! S f 3 % % , , 3 e e %             .           ",
"                                        @ p S ! ` ( L v p 3 % % : 3 9 e e @             .           ",
"                                        . : , , , , : : % % @ % : 3 e u 9 .             .           ",
"                                . @ % : 3 3 3 3 3 : : % % @ @ @ . % , e 3               .           ",
"                          . @ , u f l l l f f p e 9 9 3 , % % : : % @ @ @ .             .           ",
"                      . % e v Z S Z Z m m l f f p e e 3 , : % : : , 3 , : @ .                       ",
"                  . % u S Y Y Y L L S Z m m v l p p e 9 9 , : % : , , 3 3 3 , @ .         .         ",
"                @ 3 Z ! ( ! ! ! R Y L S Z m m v f f p e 9 3 , : % : , , 3 9 9 3 : .                 ",
"            . @ f R ` ` ` ` ( ( ! ! Y L L S m m v f p u e 3 , : % : : , 3 3 9 e e 3 @ .             ",
"          . % v ! } }  .} } } ` ( ( ! Y L S S m v l f p e 9 3 , % : : , 3 3 9 9 e u 9 @ .           ",
"        . % m ( ` }  . .@.@. .} } ( ( R R L S Z m l f p u 9 9 3 : % : , 3 3 3 e 9 e u e @ .         ",
"        @ v ! ` }  .@.*.-.*.@.@. .` ( ! R Y S S m v l f u e 9 , : % : : , 3 3 9 e e u p e .         ",
"      . u Y ( `  .@.*.-.-.:.-.@. .} ` ( R Y L S Z v l f u u 9 3 , : % : , , 3 9 9 e u p f 9 .       ",
"    . 3 S ! ( ` } @.@.-.:.:.-.@.@.} ` ( ! Y L S Z v l l p e e 3 , : % : , 3 3 9 9 e u u p f , .     ",
"    @ l Y R ( ( } } @.*.*.-.-.@.@.} ` ( ! Y L Z Z m v f p u e 3 , : % : , , 3 9 9 e e u p f u @     ",
"  . , Z Y R ! ( ` }  .@.@.@.@.@.} } ` ( R Y Y S m m l f p u e 3 , : % : : , 3 9 9 9 e u p f f , .   ",
"  . u S S Y R ! ( ` } }  . . .} } ` ( ! R Y S S Z m v f p u e 3 , : % : , , 3 3 9 e u u p f l u .   ",
". % l Z Z L Y Y ! ! ( ` ` } ` ` ( ( ! R Y L S Z m v l f u e 9 3 , : % : , 3 3 9 9 e u u p f l f % . ",
". : l m Z S L L R ! ! ! ( ( ( ( ! ! R Y Y S Z Z m l l p u e 9 3 , : % : , , 3 9 9 e u p f f f l , . ",
". , l v m Z S L Y Y Y Y R R R R R Y L L L Z Z m v l f p u 9 3 3 : % : : , , 3 3 9 e u u p f l l 9 . ",
". 3 f l v v m Z S S L L Y Y Y L Y L L S Z Z m v l l p u e 9 3 , : % : : , 3 9 9 9 e u u f f l l e . ",
". 3 u f l v v m Z Z S S S S S L S S Z Z Z v v l f f u e e 3 3 , : % : , 3 3 3 e e e u u f f l l e . ",
". , u p p f l v v m Z m Z Z Z Z Z Z m v v v l f f p u 9 9 3 , : % : : , 3 3 3 9 e u u p p f l l e . ",
". : 9 e u p p f l l v v m v m m m v v v l l f p u u 9 9 3 , : % : : : , 3 3 9 9 e u p p f l l l 9 . ",
". % 3 9 e e p p f f f f l l l l l l f f f p u u e 9 9 3 , : % : : : , 3 3 9 9 e e u p f f l l l 3 . ",
". @ : 3 9 9 e e u u p p p p p f p p p p u u e e 9 9 , , , : % : : , 3 3 3 9 e e u u p f f l f f % . ",
"  . % , , 3 3 9 9 e e u u u u u u u u e e e 9 3 3 , , : % % : : , 3 3 3 9 9 e e u p p f l l l p @   ",
"  . @ % : , , 3 3 9 9 9 9 e 9 e e 9 9 9 9 9 3 , , : : % : : , , , 3 3 9 9 e e u p p f f l l l 3 .   ",
"    . % : % : : : , , , 3 3 3 3 3 3 3 3 , , , : : % % : : : , , 3 9 3 9 e e u p p f f l l f p @     ",
"    . @ : : % % : % : : : , : , , , : : : % % % : % : : : , 3 3 3 9 9 e e u u p p f f l l f , .     ",
"      . % , : : % : % : % % : % % : % % % : : : : : , , , 3 3 9 9 9 9 e e u u p f l l l l e @       ",
"        . , , , , , : : : : % : : % : : : : , : , , 3 , 3 3 3 9 9 e e u u p p f f l l l u % .       ",
"        . @ , 3 3 , , , , , , : , , , , , , 3 , 3 3 3 9 9 9 e e e e u p p f f f l l v p % .         ",
"          . @ , 3 3 3 3 3 , 3 , 3 3 , 3 3 3 3 3 3 9 3 9 9 e e e u u p p f f f l l l p % .           ",
"            . @ , 9 9 9 9 9 3 9 3 3 9 3 3 9 9 9 9 9 9 e e e u u u u f f f f l l l e @ .             ",
"                . : 9 e 9 9 9 9 3 9 9 9 9 e 9 9 e e e e u u u p p f f f l l l f 3 @                 ",
"                  . @ 3 9 e e e e e e e e e e u u e u u p p p p f f l l l f e % .                   ",
"                      . % 3 9 u u e u u u e p p p p u p p f f f f l l f e : .                       ",
"                          . @ : 9 e u p p p p p p f f f f l l l f u , % .                           ",
"                              . . % : , 9 e e u p p p p u 9 3 : @ . .                               ",
"                                      . . . . @ @ @ @ . . . .                                       "
};
