/* XPM */
static char *_e0ebc689c5c4cb882b171267395b0e2332z1qhOQWjg4EfD[] = {
/* columns rows colors chars-per-pixel */
"50 50 233 2 ",
"   c None",
".  c #1C0100",
"X  c #1E0000",
"o  c #1F0000",
"O  c #1E0100",
"+  c #1F0100",
"@  c #200000",
"#  c #200100",
"$  c #220100",
"%  c #230100",
"&  c #200201",
"*  c #210201",
"=  c #200302",
"-  c #210302",
";  c #210303",
":  c #240100",
">  c #250100",
",  c #210403",
"<  c #220403",
"1  c #220504",
"2  c #220605",
"3  c #220706",
"4  c #230707",
"5  c #2A0200",
"6  c #2B0200",
"7  c #2C0200",
"8  c #230807",
"9  c #230908",
"0  c #240A09",
"q  c #250A09",
"w  c #240B0A",
"e  c #250B0A",
"r  c #240C0B",
"t  c #250C0C",
"y  c #250D0C",
"u  c #250D0D",
"i  c #250E0D",
"p  c #260E0D",
"a  c #260E0E",
"s  c #270E0E",
"d  c #280C0B",
"f  c #280F0E",
"g  c #290F0F",
"h  c #2B0F0E",
"j  c #310300",
"k  c #350301",
"l  c #380301",
"z  c #27100F",
"x  c #29100F",
"c  c #271110",
"v  c #2B1110",
"b  c #281211",
"n  c #291313",
"m  c #2D1312",
"M  c #291413",
"N  c #2B1716",
"B  c #2B1817",
"V  c #2C1817",
"C  c #2D1919",
"Z  c #2D1A19",
"A  c #2D1A1A",
"S  c #2D1B1A",
"D  c #2E1C1B",
"F  c #2F1E1D",
"G  c #301514",
"H  c #341B1A",
"J  c #311D1C",
"K  c #311F1E",
"L  c #351F1E",
"P  c #39201F",
"I  c #312121",
"U  c #322120",
"Y  c #332221",
"T  c #332222",
"R  c #322424",
"E  c #342525",
"W  c #372625",
"Q  c #362726",
"!  c #3C2322",
"~  c #3D2827",
"^  c #372828",
"/  c #372C2C",
"(  c #392928",
")  c #3A2B2A",
"_  c #3E2A29",
"`  c #3E2F2E",
"'  c #3F302F",
"]  c #3F3030",
"[  c #3C3535",
"{  c #400401",
"}  c #4C0501",
"|  c #680802",
" . c #690802",
".. c #6E0802",
"X. c #740902",
"o. c #7C0A02",
"O. c #422A29",
"+. c #432C2B",
"@. c #40302F",
"#. c #413231",
"$. c #423231",
"%. c #423232",
"&. c #443433",
"*. c #443434",
"=. c #463736",
"-. c #483130",
";. c #493333",
":. c #4A3332",
">. c #483837",
",. c #423E3D",
"<. c #423F3F",
"1. c #4A3939",
"2. c #4A3A39",
"3. c #4E3D3C",
"4. c #4F3D3D",
"5. c #503E3E",
"6. c #513F3E",
"7. c #513F3F",
"8. c #52403F",
"9. c #4D4B4B",
"0. c #4B4B4C",
"q. c #4C4C4C",
"w. c #4D4C4C",
"e. c #4E4E4F",
"r. c #524040",
"t. c #534140",
"y. c #544141",
"u. c #564443",
"i. c #574443",
"p. c #584544",
"a. c #594544",
"s. c #594545",
"d. c #5A4645",
"f. c #5A4646",
"g. c #5B4746",
"h. c #5D4847",
"j. c #5D4948",
"k. c #5D4949",
"l. c #5E4948",
"z. c #5E4949",
"x. c #5E4A49",
"c. c #5F4A49",
"v. c #5F4A4A",
"b. c #5F4B4A",
"n. c #525050",
"m. c #575454",
"M. c #5B5B5B",
"N. c #5C5D5D",
"B. c #604B4B",
"V. c #604C4B",
"C. c #614C4B",
"Z. c #614C4C",
"A. c #614D4C",
"S. c #624D4C",
"D. c #624D4D",
"F. c #634E4D",
"G. c #634F4E",
"H. c #644F4E",
"J. c #64504E",
"K. c #64504F",
"L. c #65504F",
"P. c #655150",
"I. c #665150",
"U. c #665151",
"Y. c #665251",
"T. c #675252",
"R. c #685352",
"E. c #685353",
"W. c #685453",
"Q. c #695453",
"!. c #695454",
"~. c #6A5554",
"^. c #6A5655",
"/. c #6B5655",
"(. c #6B5656",
"). c #6B5756",
"_. c #6C5756",
"`. c #6C5857",
"'. c #6D5857",
"]. c #6D5958",
"[. c #6E5958",
"{. c #6E5959",
"}. c #6E5A59",
"|. c #6F5A59",
" X c #6F5A5A",
".X c #6F5B5A",
"XX c #705B5A",
"oX c #705B5B",
"OX c #705C5B",
"+X c #715C5B",
"@X c #715C5C",
"#X c #725C5C",
"$X c #725D5C",
"%X c #725D5D",
"&X c #735E5D",
"*X c #735E5E",
"=X c #745F5E",
"-X c #745F5F",
";X c #74605F",
":X c #75605F",
">X c #756060",
",X c #756160",
"<X c #766160",
"1X c #766261",
"2X c #776261",
"3X c #776262",
"4X c #776362",
"5X c #786363",
"6X c #786463",
"7X c #796464",
"8X c #796564",
"9X c #7A6565",
"0X c #7B6665",
"qX c #7B6666",
"wX c #7C6766",
"eX c #7C6767",
"rX c #7D6867",
"tX c #7F6A69",
"yX c #7F6B6A",
"uX c #860B03",
"iX c #910C03",
"pX c #920C03",
"aX c #9A0D03",
"sX c #9F0D03",
"dX c #A60E03",
"fX c #B00F04",
"gX c #B10F04",
"hX c #BB1004",
"jX c #BD1004",
"kX c #BE1004",
"lX c #C01004",
"zX c #C11004",
"xX c #806B6B",
/* pixels */
"                                                                  X - X X - X -                     ",
"                                                                - X             X X                 ",
"                                                            X -                     -               ",
"                                                          X -                       uX>             ",
"                                                          X -                       zX| X           ",
"                                                          -                         kXgXj         kX",
"                                                        X X                         kXkXX.    kXkXkX",
"                                          - - 9 C V z , X -                         kXkXfXpXkXkXkX  ",
"                                          X e [ q.q.r.c . X X X - X X - } pXhXkXkXhXhXkXhXkXkXkXkX  ",
"                                        - - R q.N.M.q.C . X - - - X - - X 6 sXkXkXkXkXkXkXkXhXhXhX  ",
"                                        X - ) 9.m.n.,.p X - X - - - X - - X     hXkXkXhXkXhXkXkXkXkX",
"                                        X - e g g g e - - - X - X - - - X X   kXhXkXkXhXkXkXhXkXhXkX",
"                                - - X - X - - X X X X - - - X - - - X X > | zXkXkXkXkXkXkXhXkXkX    ",
"                          X - X X - X - - - X - - - - - X - X - X - - j ..aXfXzX    kXhXkXkXkXhXkX  ",
"                      X - d H ~ _ K p - - X - - - X - X - X - - X - - j l 6 -       kXhXkX    kXkXkX",
"                  X - G -.a.B.C.B.i.%.C 1 - X X - - - X - - - X - - X - X X X - X   kXkX        kXhX",
"                - h :.F.W.R.I.L.S.B.z.5.T 8 X X - - X - - - X - - X - - - X - - X 7 dXlX            ",
"            - - L h._.`.`.`._.~.R.H.C.B.8.T 8 - - X - - X - X - - X - X - - X - X 6 o.{             ",
"          X - +.R.[.oX$X$X+XoX[.!.W.I.S.b.3.C - - - X X - X - - - - X - X X - - - > k - X           ",
"        X - +.R.oX&X;X:X5X:X;X$XoX_.!.H.b.z.%.p X - - - - - - X X - - - - - - X - X - X - X         ",
"        - ! H.`.oX&X5X9X0X0X5X;X*X}._.R.H.B.t.F - - - X X X - - - - X X X - - - X - - X - -         ",
"      - G g.!.oX#X:X6XxXxXxX0X5X;X+X`.W.L.C.g.) 1 X - - - - - X X - - - - - X X X - - X - X -       ",
"    X - :.I.~.[.$X;X5XrXxXxXrX9X,X+X}.!.I.S.z.%.t - X - - - - X X - - - - X - - - - - - - - X X     ",
"    - b g.H.R._.oX&X5X9X9XxX9X5X;X*X`.!.I.S.z.&.p - - - X X - - - - X X - - X - - X X - X - - -     ",
"  - X L z.S.I.!.`.+X*X;X6X5X5X&X*X}.`.W.L.S.h.%.9 X X - - - X - - - X X - - X - X - - - - - - X -   ",
"  - - K u.B.H.I.!.}.}.*X&X&X&X&X}.}.!.I.S.C.i.E 1 - - - X - X - X - - - - X - - - - X X X X - - -   ",
"X - - e ` g.S.S.I.!.!.}.}.oX}.`._.!.I.I.S.z.2.V - - X X - X - - X - - - - - X X - X - - - - X - X - ",
"X - X - c ` g.S.S.I.I.R.W.!.W.W.W.I.K.S.b.t.E 4 X - - - - - - X - - X X X - - - - - X - - X - - - X ",
"X X X - X p ) 5.h.C.S.H.J.L.L.J.H.S.C.z.r.^ p X - - - X X X - - X - - - - - - X X X - - - - X X X - ",
"- - - - X - 1 C %.5.g.z.b.C.C.C.z.z.i.=.K e X - X X - - - - - X - - X - X X - - - - - X X - - - - X ",
"- X - X - X - - 1 N E %.2.3.5.3.=.' T z - - - X - - X - - - - X - X - X - - X - - - - X X - - - - X ",
"- - - X - - - X - - , e p b M b p 8 , X - X - - - X - - X X - - - X - - - X - - X X - - - - X X - - ",
"X - X - X - - - X - - X - - - X - - X X - - X - - - X - X - - - X X - - - - X X - - X - - - X - X X ",
"X - X - - - X - X - - X - X - - X - - - - X - - X - X - - - X - - - - X X - - - - X - - X - X - - - ",
"X X - - - X - X - - - - X - X - X - - - - - X X - X - - - X - X - - - X X - - - - - X X - X - - X X ",
"  - - X - X - - - X X - - - X - - - X X X - - - - - - X - X - - X X - - - - X X X - - - - - - X -   ",
"  - - X - - X - - X X - - - X - X - - - - - - X X - - X - - X - - - X - - X - - - - - X X X - - -   ",
"    - X - X - - - - - - X - X - - - X - X X - - X - - X - X - - - X - - - - X - X X - - - - - X     ",
"    X - - - X X X - - X - X - - - X - X - - X - - - - - - - X X - - X X X X - - - - X - - - - X     ",
"      - X - - - X - - X - - - X - X - - - X - - - X X - X - - - X - - - - - - X - X - - X X -       ",
"        X - - - - - X - - - X - X - - - X - - X - - - X - X X - X - - - - - - X - X - X - - X       ",
"        - - X X - X - - X - X - - - X - X - - X X X - - - - - - - - X X X X - - - - - X - X         ",
"          X - - - - X X - X - - - X - X - - - - - - X - X - - X - X - - - - X - X X - - X           ",
"            X - X - - - - - - X - X - - - X X - - X - - X - - X - - X - - X - - - - - X             ",
"                X - - X X X - - - X - - - X X - - - X - X - - - X X - - - - X X - -                 ",
"                  X - - - - - X - X - X - - - - X - X - - - X - - - - X X - - - X                   ",
"                      - X - - X - - X - X - - X - X - - - X - X - - - X X - -                       ",
"                          X - - X - - - X - - X - - - X - X - - X X - - -                           ",
"                              X - - - - X - - X - X - - - X - - - X X                               ",
"                                      X X - - - - X - X - X X                                       "
};
