/* XPM */
static char *_b70ec2170594ee39864312f9712a54dd88CgdC2qu9TnnXa[] = {
/* columns rows colors chars-per-pixel */
"50 50 217 2 ",
"   c None",
".  c #030303",
"X  c #0D0C0B",
"o  c #080709",
"O  c #1C1C0F",
"+  c #171614",
"@  c #110F14",
"#  c #23221B",
"$  c #34341A",
"%  c #1B1A26",
"&  c #35312B",
"*  c #35322B",
"=  c #4A352F",
"-  c #68293C",
";  c #4A463C",
":  c #4F4D2C",
">  c #605D2F",
",  c #6A6730",
"<  c #393457",
"1  c #332F4D",
"2  c #442D4E",
"3  c #742D41",
"4  c #7A2F45",
"5  c #7B3247",
"6  c #7A3B51",
"7  c #65364F",
"8  c #463F72",
"9  c #595348",
"0  c #474559",
"q  c #595859",
"w  c #51494D",
"e  c #63464F",
"r  c #615A4E",
"t  c #7A4256",
"y  c #7B525F",
"u  c #6C4855",
"i  c #6A6459",
"p  c #6F6953",
"a  c #4B4579",
"s  c #5B5779",
"d  c #575668",
"f  c #7C5662",
"g  c #686769",
"h  c #7A7161",
"j  c #676778",
"k  c #757578",
"l  c #8B354D",
"z  c #83344B",
"x  c #8B3B52",
"c  c #863B51",
"v  c #933953",
"b  c #9B3955",
"n  c #933B55",
"m  c #A53C5B",
"M  c #A83D5D",
"N  c #85445B",
"B  c #87465C",
"V  c #91455E",
"C  c #AB405F",
"Z  c #8C4B62",
"A  c #824F60",
"S  c #924B65",
"D  c #9A4A66",
"F  c #8A5466",
"G  c #9A516A",
"H  c #AC4262",
"J  c #A84967",
"K  c #B44C6C",
"L  c #B24566",
"P  c #B94E72",
"I  c #A55371",
"U  c #AD5978",
"Y  c #A95775",
"T  c #B45B7D",
"R  c #B8597A",
"E  c #AF526D",
"W  c #877D6B",
"Q  c #86767C",
"!  c #986274",
"~  c #B5647E",
"^  c #C5567A",
"/  c #82803C",
"(  c #949051",
")  c #B2AE53",
"_  c #998E79",
"`  c #978D79",
"'  c #AC997F",
"]  c #B79C7D",
"[  c #534B84",
"{  c #534C8E",
"}  c #554D95",
"|  c #564E99",
" . c #5A529D",
".. c #595196",
"X. c #635D9A",
"o. c #625F89",
"O. c #686784",
"+. c #7A798A",
"@. c #706D8F",
"#. c #5C53A0",
"$. c #615CA1",
"%. c #6A63A8",
"&. c #726DA6",
"*. c #7C78AB",
"=. c #7A74B3",
"-. c #BB5F81",
";. c #957980",
":. c #BB6885",
">. c #AF768B",
",. c #817CB6",
"<. c #837EB9",
"1. c #C95C81",
"2. c #D05F85",
"3. c #CB668B",
"4. c #D2658B",
"5. c #D9668D",
"6. c #DA6B94",
"7. c #D46B91",
"8. c #CA7A99",
"9. c #E36D97",
"0. c #E7729B",
"q. c #ED76A2",
"w. c #E77DA4",
"e. c #F07AA5",
"r. c #7F8082",
"t. c #878789",
"y. c #898C91",
"u. c #8F9295",
"i. c #939394",
"p. c #969A9D",
"a. c #9B9A9B",
"s. c #94969A",
"d. c #97888E",
"f. c #A79A84",
"g. c #B29F89",
"h. c #B3A38D",
"j. c #BDA68B",
"k. c #AEA69B",
"l. c #BAAC93",
"z. c #B9AE9A",
"x. c #B4AA9A",
"c. c #BCB19A",
"v. c #9B9EA1",
"b. c #958FB9",
"n. c #AE95A0",
"m. c #9FA1A4",
"M. c #A5A9AB",
"N. c #A6A7A8",
"B. c #B2A9A4",
"V. c #BAB3A9",
"C. c #AEB2B4",
"Z. c #BBB5B2",
"A. c #BCBDBD",
"S. c #B7B9B8",
"D. c #B2ADB1",
"F. c #D6839F",
"G. c #CBAA84",
"H. c #C5A883",
"J. c #DDB98D",
"K. c #D9B58B",
"L. c #C3B69B",
"P. c #D5B691",
"I. c #CA9BAB",
"U. c #D591AA",
"Y. c #EB88AE",
"T. c #EC94B6",
"R. c #C4B9A1",
"E. c #C5B9A1",
"W. c #C7B8BA",
"Q. c #CFA9B6",
"!. c #EBC79B",
"~. c #F1CA9A",
"^. c #D8C8A9",
"/. c #C6C2BD",
"(. c #F2CEA0",
"). c #F4D2A6",
"_. c #F7D8AD",
"`. c #E4D4B3",
"'. c #EDDDBB",
"]. c #E9D8B7",
"[. c #F6DDB5",
"{. c #F8DEB7",
"}. c #E9D4AF",
"|. c #F4E2BE",
" X c #FAE1BB",
".X c #EFE0BD",
"XX c #BABEC1",
"oX c #D8B9C4",
"OX c #E9B5C7",
"+X c #F1B3CC",
"@X c #BEC2C4",
"#X c #C3C4C5",
"$X c #CCCCCC",
"%X c #C8C7C7",
"&X c #CCCED1",
"*X c #CED2D5",
"=X c #D4D4D4",
"-X c #DBDBDB",
";X c #D4D8DA",
":X c #D8D0D1",
">X c #EBD5DC",
",X c #E9CAD4",
"<X c #F5E5C1",
"1X c #F8E7C3",
"2X c #F9E9C4",
"3X c #EDDFE3",
"4X c #DEE1E2",
"5X c #E4E4E4",
"6X c #ECECED",
"7X c #E8E5E7",
"8X c #F7E2EB",
"9X c #EEEFF0",
"0X c #FBEDF3",
"qX c #EFF0F1",
"wX c #F3F3F4",
"eX c #FCFDFD",
"rX c #F8F5F7",
/* pixels */
"                                                    F U T Y 6                                       ",
"                                                u I.3X+X6.2.3.T                                     ",
"                                                8.0XeXrX~ m M P I                                   ",
"                                              I w.OX3XQ.J m m M K 6                                 ",
"                                              T 0.J J B F c b M M 6                                 ",
"                                              F ~ G y a.D.k 6 B n -                                 ",
"                                          N.#X%X-X7X6X6X6X7X-X%XS.a.`                               ",
"                                      A.7XrXeXeXrXqX9X6X6XqXwXeXeXrX6X=Xm.                          ",
"                                  i.4XrXeX4X/.x.h.j.l.j.l.h.h.k.Z.:X6XeXrX%X                        ",
"                                i.6XeX6XV.h.P.!.~.).).).(.~.~.!.J.H.h.Z.wXeX%X                      ",
"                                7XeX5Xk.^.}.`.|.|.1X<X1X<X<X|. X[._.~.G.k.6XwXm.                    ",
"                              #XeXwXk.`.2Xp 9 .X<X<X<X<X<X<X<X<X|.f.f.~.G.V.eX$Xk                   ",
"                              6XeX%XR.2X'.= * '.<X<X<X<X<X<X<X<X'.& 9 [.~.' 5X4Xp.                  ",
"                            N.rXrXx.].<X'.* w .X<X<X<X<X<X<X<X<X^.# 9 |.).G.%X9XC.                  ",
"                            %XeX9Xx.<X<X`.# ; .X<X<X<X<X<X<X<X<X^.+ r |. XK.Z.qXS.g                 ",
"                            =XeX4Xz.2X<X`.# 9 <X|.<X<X<X<X<X<X2XL.+ p |. XJ.B.qX@Xg                 ",
"                  B S N     -XeX4Xz.|.2X^.+ 9 |.<X<X<X<X|.<X<X2Xl.X h |. XJ.x.wX@Xg                 ",
"              >.U.w.5.4.1.B -XeX4Xz.2X2X^.O i <X<X<X<X<X<X<X<X2Xh.X ` |. XJ.V.qX@Xk                 ",
"            :.8XeX,XE m H Z :XeX5Xc.|.2Xc.X h 2X<X<X<X<X<X|.<X2Xf.X _ 2X[.K.V.9XXXg                 ",
"          Z T.0XeX>XE M M x $XeX6Xz.|.2Xl.. ` 2X<X<X<X<X<X<X<X2X_ o g.2X[.G.%X6XS.u ! I.oXF.U       ",
"          T e.U.I.:.M M m v V.eXrXN.].2Xl.X _ 2X<X<X<X<X<X<X<X2X` o l.2X_.] =X4XM.F F.rXeX8XY.6.S   ",
"          T e.^ M m m m m b Q eXeX&Xc.2Xl.O h.2X<X<X<X<X<X<X<X2X` + c.2X!.f.6X&Xt.x U >XwXOX7.0.6.7 ",
"          S 0.2.M m m m m m B =XeXrXZ.L.`.l.'.|.<X<X<X<X<X<X<X2Xl.9 `. Xj./.9X@XA b M E ~ J C 6.q.I ",
"            :.0.P m m m m b t y.9XeXrX%Xx.^.`.'.<X<X2X<X<X2X<X2X|.'.`.l.Z.qX=Xy.x C m m C m C ^ q.T ",
"              Y 5.^ K H n - q t.p.;XwXeX9X=XZ.V.V.R.c.R.R.E.E.R.V.V.V.-X9X=Xv.e m m m m m m m 1.q.G ",
"                  S V 6         q g m.@X-X5X9X9X9X5X4X4X-X;X-X4X5X6X6X;XA.u.u.Q x m m m m m L 9.7.7 ",
"                                    w g y.p.M.A.@X@X;X;X;X;X*X&X@XS.m.u.y.M.XXM.e l b C M L 5.4.t   ",
"                                        g t.t.d s O.j O.O.j O.g y.p.v.N.M.s.k       3 n E R G       ",
"                                            d }  .| } ..} } } a a.N.y.k                             ",
"  6 T 3.T S                               p.b.$. . . . . . . .[ <                                   ",
"6 U U Y T U.W.Q                         + w 0 0 j s a { $.%.%...                                    ",
"I 1.P K D ! ,X3Xd.                      . . . / , $ > W i s &. .<                                   ",
"I L m m H J Z >.~ c                     X X # ( : O + ) , o % < 1                                   ",
"D H m m m C H 5 b m -   y.W.$X$X$XXXa.q +.O.o.@.k i p ) $ . . o .                                   ",
"c J m m m m m b 3 m b y 4XeXeXrXqXqX6X$X+.=.b.b.<.=.*.@.0 % o o                                     ",
"  J m m m m m C z z m x D.6X*X%X@X@X@X$XM.O.=.=.<.<.b.r.=. .< @                                     ",
"  Z m m m m m m m 3 b m y S.M.s.t.k k t.i.j &.,.<.<.,.=.%.#.a                                       ",
"    J C m m m m M l 5 M z q                 8 ..#.%.$. .{ s +.                                      ",
"    5 b m m m m m b 3 m v                       1 2 7 8 ;.C.@Xs.                                    ",
"      5 m m m m M M 4 v b                         x H 6 s.XXXX&Xi.                                  ",
"        4 m M m m M l z l                       4 M M x g S.4XwX%X                                  ",
"          - v M m M m x -                       l M m 6 y.M.rXeX-X                                  ",
"              4 z l 4 -                         4 M m c t.&XeXeX=X                                  ",
"                                                - m m K -.n.$X$Xd.                                  ",
"                                                  v M 5.e.6.3.:.6.D                                 ",
"                                                  - H 9.Y.Y.q.q.q.-.                                ",
"                                                    x 9.+X8XY.0.q.7.                                ",
"                                                      T T.0X+Xq.q.3.                                ",
"                                                        T Y.Y.q.0.I                                 ",
"                                                          t I Y S                                   "
};
