/* XPM */
static char *_6704ef279e34132fd6142086f126854FmolcnA7slYNp4D9[] = {
/* columns rows colors chars-per-pixel */
"50 50 68 1 ",
"  c #679C04",
". c #689F02",
"X c #65970D",
"o c #669B0C",
"O c #689E0C",
"+ c #649513",
"@ c #669911",
"# c #699D12",
"$ c #6AA500",
"% c #69A402",
"& c #69A204",
"* c #68A206",
"= c #69A206",
"- c #6AA605",
"; c #69A506",
": c #6AA606",
"> c #6BA800",
", c #6BA900",
"< c #6BA801",
"1 c #6BA803",
"2 c #6BA903",
"3 c #6CAE00",
"4 c #6CAF00",
"5 c #6DAF00",
"6 c #6CAC03",
"7 c #6BA905",
"8 c #6BAB05",
"9 c #6BAB07",
"0 c #6BAC05",
"q c #6CAD04",
"w c #6EAF06",
"e c #68A208",
"r c #69A208",
"t c #68A209",
"y c #68A00A",
"u c #69A30B",
"i c #69A408",
"p c #6AA609",
"a c #68A20C",
"s c #6AA808",
"d c #6BA808",
"f c #6CAA0B",
"g c #6CA80E",
"h c #70AF0C",
"j c #6CB001",
"k c #6DB301",
"l c #6DB002",
"z c #6DB203",
"x c #6EB400",
"c c #6DB104",
"v c #6FB800",
"b c #6FB901",
"n c #71B404",
"m c #70B900",
"M c #72BB02",
"N c #70BC00",
"B c #73B40D",
"V c #76BB0E",
"C c #78BE0E",
"Z c #6AA113",
"A c #6BA312",
"S c #6FAA11",
"D c #70AE11",
"F c #72B310",
"G c #75B810",
"H c #79C206",
"J c #7AC30D",
"K c #7DC90D",
/* pixels */
"2x-%24xxjl2X...++ek8 %%X+++o0z-6o80##Old++ic2l%%6l",
"4lo%44m766%XX.OoO6joX&.X+oaeb8228l#Oi0lo@ic022ylx%",
"l-O44l4-2%.+XX-8*22+++XX00+jx*22n8oz-4d86jxe%%4l2%",
"42x2%m-%%% ++-lO.2%++++<j@ak0%%jlil8-4lnjl6o.%20..",
"740@4x .&oXX-x-+*&O+++*<*+%j-%jj2jl.%llbjj*X .l-+4",
"74oo40X  +O*x8X+..X++..%XO%2*jx%jl-o2lxl22O++*lXyb",
".%X-xi++Xi6lx @y XXo*X %%a%%262%jle0l6b8%&+++l0olx",
"XX@l4o+Xdc-lyOd@+X*6@++6oo&%26 %x26l.jl %.++-naol0",
"++il%XyxN082yci+oixu+o00+Xo%6;@jl2xyox0...+Xl0X%2y",
"+on4.*lmm-22ll@u0c0oy0nu+++djX;b%82X8xyX o+*liX%%o",
"+4x%.%4ml*%44y80-l0lccl@+ZSxioz6   @4lo+XXO%6yX%%+",
"yl8X %4n7%4x48m*%lxmlli@FS8x#ili+o+yl%@+eOO%%X  %+",
"84*+X*nlllx22l0O%lln2j-BVoj2X%6O++@x4*X08+o%%XXoXe",
"22X+@B4lmx4%4xi 44x4%2BGZ*j&X82X++db%.0lo+ . +++68",
"%%X+Gn4n44%%l4*l24b-%2dS@%%Oo&&++#44 %2*++X o+X2j+",
"%.+hJ->>28X%m-n2Oll %%Z#X%&X  .+X7x X.%X+XOXX+*%O+",
"  #Jf.%%lyOx>44X*x8 . ++o%%XXXO-y24X+o +y0o+++..@+",
"XXSJZXoll+0x-%yX2lX+oX++ %%++olyy%%++++-ly++++X ++",
"+@FF@+ybuOl7X ool4@++OX+ 4o+X40@ - +++O2i++++++@#+",
"+ZFS++l4@-4O+++9l%+ocO#Oly++%%y+ -y++X%%o+++o+#S++",
"+ADZ+O4-+%7X++ym2.Ol-oi0c@+o..X+- o+yo  +++iZ#VZ++",
"+ZA@+74Oo%%X+@cl.%l7#0-4d+*oXoX0y++iy+Xo+@y0ZVB+++",
"y#Z@O%>Xo.%++yn- .% 8c84ad8++Old++yc@+++yycZDJ#+++",
"+@@y %%XX  Xy>nOX  *bl488j#O-6x#odxi+++yic0ACB+++#",
"++iiO..++o-fO2-+++Xxbl%8x-aci66;l4x#++oc%lyBmZ++Zl",
"+uc@o  +g0no*l.++#dbx%%l6ix0-jlb4c7+++c002SmB#X-xu",
"fx0++XOB8%y+B% +ASjx-%jl2jj %lxn44O++9m->>lnSi-l0@",
"0ny++@VB%%OV4.ohGy26-jj%2x-o6lxl>>X+@xc*%lnfcc-l00",
"l0+++FJ#. BVoofKAo-82j%%lle0j6b0%%X+-4%%2ll0xi%lxb",
"l-++AJD##gKD+ZVB+o.%26 -x20x.6x...++74*>ll2l0 >clm",
"2O++FGSD#CJ#+SVZ++ %je@xl66eex8   +X%7%l4%6my*>4b4",
"%o+#DFCZZJG+@DD@++O-j@8b%%-+-xoX o+ %%22%%42yc>4m*",
".X+#DCG+DCS+#SZ+@0yxu#jj. oollo++oXO %88X2l2x0Ox0 ",
".X+#DKS+DGAAS###0y0xX-6-+XXOx%+@8y++o%6oob24lXixi ",
"o+++GJ@#DDGF+@ifxej0o86Oe@@xl%ol0++++c0Xjx*%*X44oX",
"OO+ZGF+DDCG++p-m8-l8X%%2a+0b>%7n#+++ybyox8  XOl8++",
"y++DGADDDVZ+i07le6lXo%x0+obx*%nf+++oll+24O+++8x*+O",
"++@DDGVADD+#m07>0x2O-lxoazbiX%Jo+#y-xiX%7@++Ob%.yl",
"+++ADKD@###cm*>7xj%6-llclxb#@JB+yzo%4oO%%+++44%%4>",
"++iACJ@+#D0m7%%lx%x02lmxlxc@BJ#-lo@82X %%++im%X%%O",
"yyoSJG+ACD%4-.4l>4lO7xmb4mi@KBi2y+*% #o7 @*44XX%.X",
"zo#DGAZGFX>>ylm%4c0 4xxl4lODC9&%gF>. +hg-7*6-@ZOX#",
"ie#DGASF#X*%7c>%44Ofllm0->OFGy 0KD   hG-lOy%8GZ+X7",
"c#ZDSZSA+o.%>> %x%0x%lx*.-#DD@AVD+XXAKn>y+%nKD++*>",
"d+#SZ#Z#Xo %li@l4>lyom>%. #AA+FF#++@VJ>%+X4HB@+o%4",
"#+uuZ++iX++-xXym%7>o%lyX  #AZ#ZA++oDJB  +XhBy++O4l",
"+ad##Xda++ym0@ll % X4w@++Oo@++@@+yohCZ+++#AS++@9-c",
"dz++e0c++axx@iliXo@Om>++yy++++++if#BF+++++@@+#00>l",
"baod0jao-lb0+26O+++ll*Xd0@++++yunO#FD#+++O+++fm*>4",
"0ozd6jiz0bxio%2X++8l% 0x#++++od0w+iBu+++y++#7nm %7"
};
