/* XPM */
static char *_689cdd3b75c479797242d36a2bab4ccbuesACGacQgjPSxC[] = {
/* columns rows colors chars-per-pixel */
"50 50 15 1 ",
"  c None",
". c #8D0593",
"X c #8F0592",
"o c #8E0593",
"O c #8F0593",
"+ c #8D0692",
"@ c #8D0792",
"# c #8D0693",
"$ c #8E0692",
"% c #8E0693",
"& c #8F0693",
"* c #8E0793",
"= c #8E0594",
"- c #8E0694",
"; c #8F0694",
/* pixels */
"                        %%=                       ",
"                  %%%%%%%%%%%%%%%                 ",
"                %%%%%%%%%%%%%%%%%%%*              ",
"              %%%%%%%%%%%%%%%%%%%%%%%             ",
"             %%%%%%%%%%%%%%%%%%%%%%%%%*           ",
"            %%%%%%%%%%%%%%%%%%%%%%%%%%%=          ",
"           %%%%%%%%%%%%%% X%%%%%%%%%%%%%=         ",
"          %%%%%%%%%%           %%%%%%%%%*         ",
"          %%%%%%%%               %%%%%%%%%        ",
"         %%%%%%%%                 %%%%%%%%        ",
"         %%%%%%%                   %%%%%%%%       ",
"         %%%%%%=                    %%%%%%%       ",
"         %%%%%%                     %%%%%%%       ",
"         %%%%%%                     %%%%%%%       ",
"         %%%%%%                      %%%%%%       ",
"         %%%%%%%                                  ",
"         %%%%%%%                                  ",
"         %%%%%%%%                                 ",
"          %%%%%%%%%                               ",
"          %%%%%%%%%%%*                            ",
"           %%%%%%%%%%%%%%%                        ",
"            %%%%%%%%%%%%%%%%%%                    ",
"             %%%%%%%%%%%%%%%%%%%%X                ",
"              *%%%%%%%%%%%%%%%%%%%%%%             ",
"                %%%%%%%%%%%%%%%%%%%%%%            ",
"                  X%%%%%%%%%%%%%%%%%%%%%          ",
"                      %%%%%%%%%%%%%%%%%%%         ",
"                          %%%%%%%%%%%%%%%%        ",
"                              %%%%%%%%%%%%%       ",
"                                 %%%%%%%%%%       ",
"                                   %%%%%%%%%      ",
"                                    %%%%%%%%      ",
"                                     %%%%%%%      ",
"       %%%%%%                         %%%%%%=     ",
"       %%%%%%%                        %%%%%%*     ",
"       %%%%%%%                        %%%%%%%     ",
"       %%%%%%%                        %%%%%%%     ",
"       %%%%%%%%                       %%%%%%=     ",
"        %%%%%%%                       %%%%%%      ",
"        %%%%%%%%                     %%%%%%%      ",
"        %%%%%%%%%                   %%%%%%%%      ",
"         %%%%%%%%%%                %%%%%%%%       ",
"         =%%%%%%%%%%%            %%%%%%%%%%       ",
"          %%%%%%%%%%%%%%**  X*%%%%%%%%%%%%        ",
"           X%%%%%%%%%%%%=%%%%%%%%%%%%%%%%         ",
"            %%%%%%%%%%%%*%%%%%%%%%%%%%%%          ",
"              %%%%%%%%%%%%%%%%%%%%%%%%%           ",
"               %%%%%%%%%%%%%%%%%%%%%%             ",
"                  =%%%%%%%%%%%%%%%=               ",
"                       %*X**%=                    "
};
