/* XPM */
static char *_6d8b80d87144799f2bedc5b02d1dd0cy1moSWyQo9WXfQdq[] = {
/* columns rows colors chars-per-pixel */
"50 50 151 2 ",
"   c None",
".  c #000000",
"X  c #000709",
"o  c #000A0D",
"O  c #000E11",
"+  c #001116",
"@  c #00151B",
"#  c #00191F",
"$  c #001D24",
"%  c #00222B",
"&  c #002730",
"*  c #002A35",
"=  c #002E3A",
"-  c #00313D",
";  c #002E41",
":  c #003443",
">  c #003847",
",  c #00364A",
"<  c #003B4B",
"1  c #003D52",
"2  c #004254",
"3  c #00445A",
"4  c #00495D",
"5  c #004562",
"6  c #004A63",
"7  c #004C6B",
"8  c #00526C",
"9  c #004D74",
"0  c #005374",
"q  c #005976",
"w  c #00537B",
"e  c #005A7B",
"r  c #005282",
"t  c #005D84",
"y  c #00578A",
"u  c #005C8D",
"i  c #005490",
"p  c #005D94",
"a  c #00559A",
"s  c #005D9C",
"d  c #00638B",
"f  c #00688F",
"g  c #006394",
"h  c #006C96",
"j  c #00639B",
"k  c #006D9A",
"l  c #00739E",
"z  c #005CA2",
"x  c #005DAC",
"c  c #0063A5",
"v  c #006AA6",
"b  c #0063AC",
"n  c #006BAD",
"m  c #0075A6",
"M  c #007AA4",
"N  c #0074AB",
"B  c #007CAF",
"V  c #0064B3",
"C  c #0069B3",
"Z  c #0064BC",
"A  c #006ABE",
"S  c #0071B6",
"D  c #007DB6",
"F  c #0076BA",
"G  c #007DBC",
"H  c #0064C4",
"J  c #006CC4",
"K  c #0064CC",
"L  c #006CCC",
"P  c #0076C7",
"I  c #007CC3",
"U  c #0075CC",
"Y  c #007BCA",
"T  c #0067D3",
"R  c #006BD2",
"E  c #0074D2",
"W  c #007CD3",
"Q  c #0084AE",
"!  c #0085B2",
"~  c #008CB6",
"^  c #0082BC",
"/  c #008CBD",
"(  c #0093BC",
")  c #0092BC",
"_  c #0091BE",
"`  c #0091BD",
"'  c #0094BE",
"]  c #0094BF",
"[  c #0095BF",
"{  c #0091BC",
"}  c #0083C4",
"|  c #008BC3",
" . c #008EC0",
".. c #008DC3",
"X. c #008EC5",
"o. c #008CC7",
"O. c #008CC4",
"+. c #0085C9",
"@. c #0087C8",
"#. c #0087CB",
"$. c #0080CF",
"%. c #0084CB",
"&. c #008DC8",
"*. c #008FC9",
"=. c #008CCA",
"-. c #008CCB",
";. c #0091C2",
":. c #0093C2",
">. c #0095C0",
",. c #0095C1",
"<. c #0096C0",
"1. c #0097C1",
"2. c #0095C2",
"3. c #0090C4",
"4. c #0093C4",
"5. c #0093C5",
"6. c #0098C1",
"7. c #0099C3",
"8. c #0099C4",
"9. c #0099C5",
"0. c #0098C6",
"q. c #0099C6",
"w. c #009AC6",
"e. c #009BC6",
"r. c #009DC6",
"t. c #009CC7",
"y. c #009DC7",
"u. c #0094CC",
"i. c #0092CD",
"p. c #009DC8",
"a. c #009FC9",
"s. c #009CCA",
"d. c #009CCB",
"f. c #009FCA",
"g. c #009ACD",
"h. c #0083D1",
"j. c #008CD2",
"k. c #0091D0",
"l. c #0096D0",
"z. c #0093D4",
"x. c #009BD0",
"c. c #009CD1",
"v. c #0098D6",
"b. c #009DDC",
"n. c #00A0C9",
"m. c #00A0CA",
"M. c #00A0CB",
"N. c #00A1CE",
"B. c #00A1D7",
"V. c #00A3DD",
"C. c #00A5E4",
/* pixels */
"                                                                                                    ",
"                                                                                                    ",
"                                                                                                    ",
"                                      <.s.m.0.<.y.6._ ( [ [ [                                       ",
"                                [ y.m.<.Q l k h h k l k m D / / /                                   ",
"                            [ s.6.Q h t 7 > > 1 ; < 5 3 5 w u n ^ |                                 ",
"                          y.m.~ h 7 , : : % $ % @ @ % % : 2 6 0 p C %. .                            ",
"                      [ m.0.M 0 > = % # $ O . X . . . X o $ * < 3 0 s F @.4.                        ",
"                    0.m.~ h 6 * + X X . . . . . . . . . . . + % * > 5 r C W &.                      ",
"                  N.y.Q t 3 % o X . . . . . . . . . . . . . . X # = : 2 r V W &.                    ",
"                0.m.! t 3 * $ @ . . . . . . . . . . . . . . . . . o $ = < e b U &.                  ",
"              s.m.! t 1 : % o . . . . . . . . . . . . . . . . . . X @ = 2 7 u A Y                   ",
"              <.<.h 7 : $ X . . . . . . . . . . . . . . . . . . . . X # - 2 0 j L #.                ",
"              s.D w = + . . . . . . . . . . . . . . . . . . . . . . . X $ < 3 9 c U X.              ",
"            [ / u 1 % O . . . . . . . . . . . . . . . . . . . . . . . . . + = 6 u A Y               ",
"          _ 0.N e < # . . . . . . . . . . . . . . . . . . . . . . . . . . . O : 0 c J |             ",
"          y.~ g 4 % o . . . . . . . . . . . . . . . . . . . . . . . . . . . X & 7 g A I             ",
"          0.N e 1 $ X . . . . . . . . . . . . . . . . . . . . . . . . . . . . # 2 d V U c.          ",
"        <. .g q 2 = o . . . . . . . . . . . . . . . . . . . . . . . . . . . . o - q c L &.          ",
"        <.^ d 8 2 * X . . . . . . . . . . . . . . . . . . . . . . . . . . . . O = 6 g H I           ",
"        :.D u 2 = O . . . . . . . . . . . . . . . . . . . . . . . . . . . . . o : 4 d C U x.        ",
"        4.N t 2 # . . . . . . . . . . . . . . . . . . . . . . . . . . . . . . X * 2 q c R l.        ",
"      _ u.N 7 = o . . . . . . . . . . . . . . . . . . . . . . . . . . . . . . . $ < e s L *.        ",
"      _ i.j 5 $ O . . . . . . . . . . . . . . . . . . . . . . . . . . . . . . . # : e j J u.        ",
"      / o.p 6 * $ . . . . . . . . . . . . . . . . . . . . . . . . . . . . . . . @ - 8 z L j.        ",
"       .@.u 1 % O . . . . . . . . . . . . . . . . . . . . . . . . . . . . . . . @ 3 e j J *.        ",
"       .#.s 6 : o . . . . . . . . . . . . . . . . . . . . . . . . . . . . . . . @ 4 e g J -.        ",
"        } k e 6 $ . . . . . . . . . . . . . . . . . . . . . . . . . . . . . . . + 2 0 g H j.        ",
"        o.v 0 < $ . . . . . . . . . . . . . . . . . . . . . . . . . . . . . . . + 2 8 j L k.        ",
"        &.n 9 : $ . . . . . . . . . . . . . . . . . . . . . . . . . . . . . . . % 2 0 c L b.        ",
"        l.C 0 : $ X . . . . . . . . . . . . . . . . . . . . . . . . . . . . . O = 4 u A E V.        ",
"        &.I y 1 % . . . . . . . . . . . . . . . . . . . . . . . . . . . . . . $ = 6 h J %.V.        ",
"         .$.s 7 > + . . . . . . . . . . . . . . . . . . . . . . . . . . . . X $ < 0 c L *.          ",
"          -.C w 3 : + . . . . . . . . . . . . . . . . . . . . . . . . . . . @ * < 0 V U x.          ",
"          X.I u 4 : * O . . . . . . . . . . . . . . . . . . . . . . . . . . + * 4 g K W             ",
"            h.C e 3 > % O . . . . . . . . . . . . . . . . . . . . . . . . + : 4 w x T #.            ",
"            #.P g 8 3 < % X . . . . . . . . . . . . . . . . . . . . . . o % = 8 h K Y V.            ",
"              %.n e 4 : % + . . . . . . . . . . . . . . . . . . . . . . X % 3 u Z U i.              ",
"              &.U c e 2 * % # o . . . . . . . . . . . . . . . . . . . @ * < 9 x T j.                ",
"                I U c t 8 2 * % # X . . . . . . . . . . . . . . . X @ % : 5 a K $.b.                ",
"                  I A g 0 2 - $ o . . . . . . . . . . . . . . . o $ = : 5 y H E b.                  ",
"                  <.G J j 9 < : & + X . . . . . . . . . . X $ % * : : 5 i H L v.                    ",
"                      Y L z 7 < & * % $ o . . . . . . X @ $ & : : : 7 s H E v.                      ",
"                      s.$.L x r 4 < < - = % + + O O $ $ & > > , 5 r x T W C.                        ",
"                          @.L H s e 7 3 1 : = = - & = > = 1 7 r s H T j.C.                          ",
"                            k.Y L Z x s y 7 5 1 , = , 5 9 i x H L W b.                              ",
"                                u.} P J Z Z x z a z x V H L Y j.b.                                  ",
"                                      X.o.} U U U E W W z.V.C.                                      ",
"                                                                                                    ",
"                                                                                                    "
};
