/* XPM */
static char *_bd1d9e3acd34687f879748e0d95cf9dUChYSBpWNgh9iLNX[] = {
/* columns rows colors chars-per-pixel */
"50 50 217 2 ",
"   c None",
".  c #030303",
"X  c #0D0C0B",
"o  c #080709",
"O  c #1C1C0F",
"+  c #171614",
"@  c #110F14",
"#  c #23221B",
"$  c #34341A",
"%  c #1B1A26",
"&  c #35312B",
"*  c #35322B",
"=  c #4A352F",
"-  c #68293C",
";  c #4A463C",
":  c #4F4D2C",
">  c #605D2F",
",  c #6A6730",
"<  c #393457",
"1  c #332F4D",
"2  c #442D4E",
"3  c #742D41",
"4  c #7A2F45",
"5  c #7B3247",
"6  c #7A3B51",
"7  c #65364F",
"8  c #463F72",
"9  c #595348",
"0  c #474559",
"q  c #595859",
"w  c #51494D",
"e  c #63464F",
"r  c #615A4E",
"t  c #7A4256",
"y  c #7B525F",
"u  c #6C4855",
"i  c #6A6459",
"p  c #6F6953",
"a  c #4B4579",
"s  c #5B5779",
"d  c #575668",
"f  c #7C5662",
"g  c #686769",
"h  c #7A7161",
"j  c #676778",
"k  c #757578",
"l  c #8B354D",
"z  c #83344B",
"x  c #8B3B52",
"c  c #863B51",
"v  c #933953",
"b  c #9B3955",
"n  c #933B55",
"m  c #A53C5B",
"M  c #A83D5D",
"N  c #85445B",
"B  c #87465C",
"V  c #91455E",
"C  c #AB405F",
"Z  c #8C4B62",
"A  c #824F60",
"S  c #924B65",
"D  c #9A4A66",
"F  c #8A5466",
"G  c #9A516A",
"H  c #AC4262",
"J  c #A84967",
"K  c #B44C6C",
"L  c #B24566",
"P  c #B94E72",
"I  c #A55371",
"U  c #AD5978",
"Y  c #A95775",
"T  c #B45B7D",
"R  c #B8597A",
"E  c #AF526D",
"W  c #877D6B",
"Q  c #86767C",
"!  c #986274",
"~  c #B5647E",
"^  c #C5567A",
"/  c #82803C",
"(  c #949051",
")  c #B2AE53",
"_  c #998E79",
"`  c #978D79",
"'  c #AC997F",
"]  c #B79C7D",
"[  c #534B84",
"{  c #534C8E",
"}  c #554D95",
"|  c #564E99",
" . c #5A529D",
".. c #595196",
"X. c #635D9A",
"o. c #625F89",
"O. c #686784",
"+. c #7A798A",
"@. c #706D8F",
"#. c #5C53A0",
"$. c #615CA1",
"%. c #6A63A8",
"&. c #726DA6",
"*. c #7C78AB",
"=. c #7A74B3",
"-. c #BB5F81",
";. c #957980",
":. c #BB6885",
">. c #AF768B",
",. c #817CB6",
"<. c #837EB9",
"1. c #C95C81",
"2. c #D05F85",
"3. c #CB668B",
"4. c #D2658B",
"5. c #D9668D",
"6. c #DA6B94",
"7. c #D46B91",
"8. c #CA7A99",
"9. c #E36D97",
"0. c #E7729B",
"q. c #ED76A2",
"w. c #E77DA4",
"e. c #F07AA5",
"r. c #7F8082",
"t. c #878789",
"y. c #898C91",
"u. c #8F9295",
"i. c #939394",
"p. c #969A9D",
"a. c #9B9A9B",
"s. c #94969A",
"d. c #97888E",
"f. c #A79A84",
"g. c #B29F89",
"h. c #B3A38D",
"j. c #BDA68B",
"k. c #AEA69B",
"l. c #BAAC93",
"z. c #B9AE9A",
"x. c #B4AA9A",
"c. c #BCB19A",
"v. c #9B9EA1",
"b. c #958FB9",
"n. c #AE95A0",
"m. c #9FA1A4",
"M. c #A5A9AB",
"N. c #A6A7A8",
"B. c #B2A9A4",
"V. c #BAB3A9",
"C. c #AEB2B4",
"Z. c #BBB5B2",
"A. c #BCBDBD",
"S. c #B7B9B8",
"D. c #B2ADB1",
"F. c #D6839F",
"G. c #CBAA84",
"H. c #C5A883",
"J. c #DDB98D",
"K. c #D9B58B",
"L. c #C3B69B",
"P. c #D5B691",
"I. c #CA9BAB",
"U. c #D591AA",
"Y. c #EB88AE",
"T. c #EC94B6",
"R. c #C4B9A1",
"E. c #C5B9A1",
"W. c #C7B8BA",
"Q. c #CFA9B6",
"!. c #EBC79B",
"~. c #F1CA9A",
"^. c #D8C8A9",
"/. c #C6C2BD",
"(. c #F2CEA0",
"). c #F4D2A6",
"_. c #F7D8AD",
"`. c #E4D4B3",
"'. c #EDDDBB",
"]. c #E9D8B7",
"[. c #F6DDB5",
"{. c #F8DEB7",
"}. c #E9D4AF",
"|. c #F4E2BE",
" X c #FAE1BB",
".X c #EFE0BD",
"XX c #BABEC1",
"oX c #D8B9C4",
"OX c #E9B5C7",
"+X c #F1B3CC",
"@X c #BEC2C4",
"#X c #C3C4C5",
"$X c #CCCCCC",
"%X c #C8C7C7",
"&X c #CCCED1",
"*X c #CED2D5",
"=X c #D4D4D4",
"-X c #DBDBDB",
";X c #D4D8DA",
":X c #D8D0D1",
">X c #EBD5DC",
",X c #E9CAD4",
"<X c #F5E5C1",
"1X c #F8E7C3",
"2X c #F9E9C4",
"3X c #EDDFE3",
"4X c #DEE1E2",
"5X c #E4E4E4",
"6X c #ECECED",
"7X c #E8E5E7",
"8X c #F7E2EB",
"9X c #EEEFF0",
"0X c #FBEDF3",
"qX c #EFF0F1",
"wX c #F3F3F4",
"eX c #FCFDFD",
"rX c #F8F5F7",
/* pixels */
"                                      N Y R U F                                                     ",
"                                    U 3.4.5.+X>XI.u                                                 ",
"                                  I P M m ~ wXeX0X8.                                                ",
"                                6 K m M M E Q.3XOXw.G                                               ",
"                                z H M m 6 F A J L 0.T                                               ",
"                                - n x 6 k C.a.y S :.F                                               ",
"                              ` a.Z.$X-X5X6X6X6X5X-X$X#XN.                                          ",
"                          v.=X6XeXeXeXwXwX6X6X6XwXrXeXeXrX7XA.                                      ",
"                        %XrXeX6X&XR.k.h.h.j.j.j.h.h.k.W.5XrXeX4Xi.                                  ",
"                      #XeXwXW.h.H.K.!.~.).(.).}.).~.!.P.h.V.6XeX6Xi.                                ",
"                    N.qXqXk.H.~._.{.'.<X<X<X<X<X<X<X<X`.}.^.k.5XeX5X                                ",
"                  k *XrXV.G.~.' f.<X<X<X<X<X<X<X<X<X<X9 p 1X`.k.wXrX#X                              ",
"                  p.5X5X' ~.[.9 & ].<X<X<X<X<X<X<X<X'.* = .X2XR.%XeX6X                              ",
"                  C.6X%XH.).1X9 # ^.<X<X<X<X<X<X<X<X<X; * ].<X].N.rXeXN.                            ",
"                q S.qXZ.K.[.|.r # E.2X<X<X<X<X<X<X<X<X; & `.<X<Xz.9XeX%X                            ",
"                k @XqXB.J. X2Xp @ E.2X<X<X<X<X<X<X<X<X9 O `.<X<Xz.5XeX=X                            ",
"                g @XwXB.J. X2Xh X l.1X<X<X<X<X<X<X<X|.9 # ^..X<Xz.-XeX-X    N S N                   ",
"                k @XwXV.J. X2XW o h.1X<X<X<X<X<X<X<X<Xi + ^.<X<Xz.4XeX-Xy 1.4.6.w.U.>.              ",
"                g S.6XZ.K.{.2X_ o f.2X<X<X<X<X<X<X<X<Xh @ L.2X<Xc.5XeX:XV H M K ,XeX8X:.            ",
"      Y F.oXI.I q C.6X%XG.[.2Xf.o ' 1X<X<X<X<X<X<X<X2XW X l.2X<Xz.6XeX$Xx M m E >XeXrXT.Z           ",
"  S 6.Y.8XeXeXF.G M.4X=X] _.2Xl.X ` 2X<X<X<X<X<X|.2X2X_ X h.2X`.x.eXeXZ.v M m M :.I.U.e.R           ",
"7 6.e.4.oX0X>XR x d.*X6Xf.~.1XL.X ` 2X<X<X<X<X<X2X|.2Xh.O l.2Xc.$XeXrXQ b m m m m m ^ q.R           ",
"I q.6.C J ~ E m b f A.9X/.j. X`.9 l.2X<X<X<X<X<X|.2X|.].L.`.E.S.rXeX=XB m m m m m m 2.q.S           ",
"U e.1.m m m m m M x y.*XqXZ.l.`..X<X2X<X2X2X<X<X2X|.'.`.^.x.%XrXeXqXi.7 m M m m m ^ 9.R             ",
"G q.2.m m m m m m m e p.=XqX;XZ.V.E.V.L.E.L.L.V.V.R.B.S.=X6XeXwX-Xs.r.q - n H K ^ 4.Y               ",
"7 7.9.L m m m m m x Q u.u.A.;X6X6X5X4X-X-X-X-X4X5X6X9X9X5X4X@Xv.g q         6 B Z                   ",
"  N 3.4.L M M m l e M.XXM.y.u.m.S.@X&X;X;X;X;X*X&X@XXXC.v.u.g w                                     ",
"      G T K n -       k s.M.M.v.p.t.j j O.j j o.j s d r.t.g                                         ",
"                            k y.N.a.a ..} } | | | | { d                                             ",
"                                  < [ .. .|  . . . . .b.v.                              Z -.3.U t   ",
"                                    { &.%. .{ [ s g 0 0 w +                         Q oXU.R I U U 6 ",
"                                  <  .&.s g ( : : > / o . o                       >.3X:X! D K K 1.Y ",
"                                  1 < % o , ) O O * ( $ o @                     z ~ >.B E L M m L I ",
"                                  o . . . & ) p i k +.O.O.+.q p.#X$X$X$XA.y.  3 m b 5 H M m m m H D ",
"                                    . . % 0 @.*.=.=.*.b.*.+.$X9XqXqXrXeXeX5Xy b b 3 b M m m m m H N ",
"                                    @ < ..,.,.<.=.b.=.=.O.M.&X#X@X@X%X*X6XB.x m z z M m m m m m J   ",
"                                      a  .%.=.<.b.<.,.&.j u.r.k k t.s.C.C.f m b 3 b m m m m m M V   ",
"                                      +.[ [  .%.%.$...8                 q z m z l M m m m m m H     ",
"                                    v.#XC.y.0 7 < 1                       b m 3 b M m m m m b 6     ",
"                                  u.#XXXXXi.c m l                         b v 3 M M m m M m 4       ",
"                                  #XrX4XS.g x M M 5                       l l l M m m M m 4         ",
"                                  -XeXrXN.u.6 m M z                       - v b M m M n -           ",
"                                  =XeXeX$Xt.c m M z                         - 4 l l 4               ",
"                                  d.$X$Xn.U P m m -                                                 ",
"                                G 6.:.3.6.q.5.H l                                                   ",
"                                -.q.q.q.Y.Y.9.H -                                                   ",
"                                7.q.q.Y.8X+X9.x                                                     ",
"                                3.q.q.+X0XT.R                                                       ",
"                                I 0.q.Y.Y.T                                                         ",
"                                  S Y I t                                                           "
};
