/* XPM */
static char *_ec380707ef64727b5a11d0e6f11b14443WpObfCQmKYNK9D[] = {
/* columns rows colors chars-per-pixel */
"50 50 61 1 ",
"  c #3E0715",
". c #3F0817",
"X c #4C0A0F",
"o c #540C0E",
"O c #5B0C0F",
"+ c #5C110F",
"@ c #420715",
"# c #440914",
"$ c #4C0B13",
"% c #410618",
"& c #530C11",
"* c #5A0C10",
"= c #4E1113",
"- c #541314",
"; c #5B1513",
": c #571914",
"> c #5D1A13",
", c #690F0C",
"< c #64140F",
"1 c #6C150F",
"2 c #67190F",
"3 c #6B190F",
"4 c #731C0F",
"5 c #781F0F",
"6 c #631612",
"7 c #691711",
"8 c #631B13",
"9 c #6B1D13",
"0 c #721D12",
"q c #7A1D11",
"w c #76220F",
"e c #7D210E",
"r c #632114",
"t c #6B2314",
"y c #6E2A14",
"u c #722213",
"i c #7B2411",
"p c #722C14",
"a c #7C2B13",
"s c #722B18",
"d c #773014",
"f c #7B3215",
"g c #7F3815",
"h c #7D3118",
"j c #82260F",
"k c #85290F",
"l c #8B2E0F",
"z c #8D310F",
"x c #90380E",
"c c #822611",
"v c #842B12",
"b c #8C2F12",
"n c #823515",
"m c #8D3111",
"M c #853914",
"N c #8C3A14",
"B c #913611",
"V c #923A12",
"C c #983F12",
"Z c #964212",
"A c #984513",
/* pixels */
"ZZZZZZZZZZN-=MZZZZZZZM2vZZZt#8VZZZZZAnOO$%#tZZZZZZ",
"mmmmzmzmmmmutNmmmmmmmmlmzmmv-6mmmmmmzmj<1<=MBmbmmm",
"mmmmmmmmmmmutmmmmmmmmvbbmmmv-0cmmmmmmzc4mc;nmbbbmm",
"mmmbmmmmmmm0tBmmmmmmmmmmmmmv-9mmbmbmmzmNml-tBmmbmm",
"mbmbmmmmvbi*9Bmmmcjmmmmmvbmm&;bkbmmbmmmmbk>mmmxbbm",
"mmmbmbeq37,&-09iqO<uvbmb<wbt#-c3iimmmmmb3;=tvmspbu",
">8888>$$$=$##$$&&$$&;-;8&->-#$;-;;88;:>;$=#=>8$#;$",
"MMMMMt#>nntntsMMMMMM8#rnMMMMMMMMMMMh=#aMMMMMnMf=$s",
"mmmmzm:nBmNBBmxmmmmzv>NmmxCzBCmmBCmzttVmlCBBBzCtrm",
"bmmmb5-Nmbbbzbmmmmmmv>NmbmlblblmmmbmupVbbblbbblt9m",
"mmmmmq&MBmmmmmmmmzmmv8NmmmbbmmmmbbbmutCbbmBbbbbu9B",
"mmmml7-Nbmbmmbmbmbmmm>NmmmBbmmvbbbBmutbbbmblbBmu9m",
"mmvkw&#tbmbivbmvu<ee9-ummmvbmm0qmvcv8;vmmbbcmau6;v",
"88+;O$#$868&;89;X#Xo$#-886;+83-o8;o;##;8886+8&$##;",
"gngnfMnnt%-fn8snnnggnnfg-.rnfhfghgnnnhns# =dngnnnh",
"mBVxxVzxm>hmBvNZZVBmmBBma>NBzBxmVCVZBNBB8-nBBVVBBB",
"mmmbbmbmb8Mmbmmmmmmmmmbbc8NcbmbmmmmmmmbmusVbmzbbbB",
"bmmbbbmmb8nBmmbmmmmmbbmBv-0vmmbzmmmmmbbb9:vmmbmmbb",
"mmbbmmmmu$Mmmbmmbmbmbbmbv$7ckmmmmmmmmccbu$ambbmmbb",
"mmBbmmmm4$tmmmmzzmmmiuvbu$&u0ivbjejlmNi36>uibBmmbB",
"99999992X##8799999978$&9$..;$$-9-#O89tt$%##$999999",
"hadddaddda6*O$#$*o*O****+sr.$addfdaddaddhdddd-%:ad",
"VZVVCzBZxBvvvi:nkkkkvvkkvBm-aBBVZZxZxmVZNBBBVa;MmB",
"mmmbbbbmmbbbBv8Nmmmbmmbmzmm8MBbbmmmmmmmmbbmmmv8Nmm",
"mmbmbbmmmmbmm9>Vbbbbbmbmzbm8nmmmbmmmzlbmbBbbbv8Vmm",
"mmmmmmbmmbblb8:Nbbbjvzmmmmm;8mmmmzmbmmmmbbbbmv-9mm",
"mmmbmbmmbmvev0;clc74lbmvvvq&9mmmbbmzmbabmmBbv7#1lB",
"tuuuuuuuuuu2*$%-6o$*70t;8O$@$9tuuutwu6&8u0u7*$@#8u",
"pppr-py$@>dypypppt##8pppppyst##rdyyyppypp;.=ppyy:r",
"zVNynxN9>NVVZZmVBN88NBNxZNZCN8rNVAAZZVBVBh-hVAZCnm",
"mmmNmmbitNbbmmbmbBupVbbbmmmmmurmzmzmmbmbmv8NmmBlzB",
"mmmmmmmitNmmbbmbbmuyVbmmmbmmmu:vmmmmmbmmmb>Nzbbbmb",
"mmmbmmmirNbbbmmmmBu9mmbmmmmbb0;abbmmmmmmmb8Nmbmmbm",
"mbmzmmbi6bbauvbmbmi8vmmbbbbzBu%;tlmbbmmmbv;vmmmmmb",
"mzmbmmbt;vmBp<uvBb9;6ucbBc4vb8&pNmmmbmccv1$3vbbccb",
"9999998$%;t9t-%698#@%&*696$68#.o999999;&6$%$<87**8",
"dd:r=#rdd:.#8addaddhdt##taadda8O&.#&&OO*O*pdaadd:%",
"BVvmMnpmVa;gNBBNBZZBBN9rNNBCVNbku$tvvvvkclzBNNVxv-",
"bbmmmmNmbv8NmmbbmmbbbBupxmmBzbmmb9dNbBbmbbmlmbblb-",
"mmmmzmBbmm8NmbmmzmbBbb0pBbbbmbmmm98mbmlbmbmmbmmmi$",
"bmbmbbmbmv6vmbmmmmmbbb0tBbbbmbmlb9&vmmmbbmbmmbbm0@",
"mmmbBmmbv9$7vbmmmbb0q096bBmmBbbv6$>bbmbbmmmmbc4va=",
"uu0u0u09O$@X*7uu009&&#%@6u0u0u6*%.#9uuuuu0u07o#<+#",
"r;- -syppyt&&*&**@%$o&6pypyyyyyyypy$%>yyppyytpppys",
"maa-fVVVBCBccccj0*-accvVCVVVVVmVZVms:MBCAVVVBCBBZV",
"mmb>Vmbbbmbmmmmcvn-pbBmbmmbbbbmmbvzjrVmmBmbbbbbmmm",
"mmv>NbmmbbbbmbmBNv8NbbmmmbmbbbbmmiwirVmmmmmmbbbmbb",
"mmv8Vmmbmbbbbbbbbv-abbmbbmmmmbmbmm7-8Vmmblzbbmbmmm",
"vi;$vmbbmmmv8uvbv7%8mbbmmmmmmmmbva7*$ivvc1cvmbmmbb",
"O$.#>a0iccvvt&;u<$.6ci0cvccvvvv7*$##%611*&<*vcav9e"
};
